SplineFontDB: 3.0
FontName: NewYorkerAccented
FullName: New Yorker Accented
FamilyName: New Yorker Accented
Weight: Book
Copyright: Freeware! from A. Carr    Remember to vote! If you don't vote, you can't bitch!\n\nFont modified from original with generated accents.
Version: 1.0
ItalicAngle: 0
UnderlinePosition: -75
UnderlineWidth: 50
Ascent: 3276
Descent: 820
sfntRevision: 0x00010000
LayerCount: 2
Layer: 0 1 "Back"  1
Layer: 1 1 "Fore"  0
XUID: [1021 587 113172008 12530296]
FSType: 0
OS2Version: 0
OS2_WeightWidthSlopeOnly: 0
OS2_UseTypoMetrics: 1
CreationTime: -2082844800
ModificationTime: 1395816636
PfmFamily: 17
TTFWeight: 400
TTFWidth: 5
LineGap: 0
VLineGap: 0
Panose: 2 2 114 0 0 0 0 0 0 0
OS2TypoAscent: 3359
OS2TypoAOffset: 0
OS2TypoDescent: -754
OS2TypoDOffset: 0
OS2TypoLinegap: 0
OS2WinAscent: 3670
OS2WinAOffset: 0
OS2WinDescent: 754
OS2WinDOffset: 0
HheadAscent: 3359
HheadAOffset: 0
HheadDescent: -774
HheadDOffset: 0
OS2SubXSize: 819
OS2SubYSize: 737
OS2SubXOff: 0
OS2SubYOff: -754
OS2SupXSize: 819
OS2SupYSize: 737
OS2SupXOff: 0
OS2SupYOff: 2384
OS2StrikeYSize: 204
OS2StrikeYPos: 1060
OS2Vendor: 'PfEd'
OS2UnicodeRanges: 00000000.00000000.00000000.00000000
MarkAttachClasses: 1
DEI: 91125
TtTable: prep
NPUSHB
 22
 8
 35
 18
 29
 2
 29
 90
 14
 13
 15
 104
 15
 90
 41
 75
 3
 90
 90
 40
 13
 90
 0
SCANTYPE
PUSHW_1
 828
SCANCTRL
SCVTCI
CALL
CALL
EndTTInstrs
TtTable: fpgm
NPUSHB
 22
 21
 20
 19
 18
 17
 16
 15
 14
 13
 12
 11
 10
 9
 8
 7
 6
 5
 4
 3
 2
 1
 0
FDEF
PUSHB_3
 0
 128
 0
RS
DUP
ROLL
DIV
ROLL
SWAP
WS
FLOOR
ODD
ENDF
FDEF
PUSHB_3
 42
 0
 0
RS
EQ
JROT
PUSHB_1
 0
CALL
IF
SLOOP
IP
EIF
PUSHB_1
 0
CALL
IF
SLOOP
ALIGNRP
EIF
PUSHB_1
 0
CALL
IF
PUSHB_1
 10
LOOPCALL
EIF
PUSHB_1
 1
RS
SRP0
PUSHB_1
 0
CALL
IF
SLOOP
ALIGNRP
EIF
PUSHB_1
 0
CALL
IF
PUSHB_1
 10
LOOPCALL
EIF
ENDF
FDEF
CALL
ENDF
FDEF
CALL
PUSHB_1
 2
LOOPCALL
ENDF
FDEF
PUSHB_1
 2
LOOPCALL
ENDF
FDEF
PUSHB_1
 1
DIV
PUSHB_1
 0
SWAP
WS
PUSHB_2
 1
 3
CINDEX
WS
DUP
GC[cur]
DUP
ROUND[Grey]
SUB
ABS
PUSHB_1
 3

StartChar: .notdef
Encoding: 65536 -1 0
Width: 3072
Flags: W
LayerCount: 2
Fore
SplineSet
512 0 m 1,0,-1
 512 2560 l 1,1,-1
 2560 2560 l 1,2,-1
 2560 0 l 1,3,-1
 512 0 l 1,0,-1
2494 66 m 1,4,-1
 2494 2494 l 1,5,-1
 578 2494 l 1,6,-1
 578 66 l 1,7,-1
 2494 66 l 1,4,-1
EndSplineSet
Validated: 1
EndChar

StartChar: grave
Encoding: 96 96 3
Width: 1073
Flags: W
LayerCount: 2
Fore
SplineSet
369 3281 m 1,0,-1
 938 2810 l 1,1,-1
 864 2728 l 1,2,-1
 111 3064 l 1,3,-1
 369 3281 l 1,0,-1
EndSplineSet
Validated: 1
EndChar

StartChar: one
Encoding: 49 49 4
Width: 1552
Flags: W
LayerCount: 2
Fore
SplineSet
1090 3056 m 1,0,-1
 1090 86 l 1,1,-1
 1384 86 l 1,2,-1
 1384 0 l 1,3,-1
 217 0 l 1,4,-1
 217 86 l 1,5,-1
 520 86 l 1,6,-1
 520 2384 l 2,7,8
 520 2650 520 2650 471 2687 c 1,9,-1
 463 2695 l 1,10,-1
 160 2527 l 1,11,-1
 127 2609 l 1,12,-1
 1303 3281 l 1,13,-1
 1352 3207 l 1,14,-1
 1090 3056 l 1,0,-1
EndSplineSet
Validated: 1
EndChar

StartChar: two
Encoding: 50 50 5
Width: 1913
Flags: W
LayerCount: 2
Fore
SplineSet
1671 815 m 1,0,-1
 1671 1098 l 1,1,-1
 1761 1098 l 1,2,-1
 1761 -66 l 1,3,-1
 1671 -66 l 1,4,-1
 1671 119 l 1,5,-1
 1647 102 l 1,6,7
 1438 0 1438 0 1286 0 c 0,8,9
 1192 0 1192 0 1110 28.5 c 128,-1,10
 1028 57 1028 57 876.5 127 c 128,-1,11
 725 197 725 197 627 229 c 0,12,13
 528 262 528 262 426 262 c 0,14,15
 250 262 250 262 250 49 c 2,16,-1
 250 0 l 1,17,-1
 168 0 l 1,18,-1
 168 430 l 2,19,20
 168 700 168 700 209 860 c 1,21,22
 246 1020 246 1020 393 1159 c 1,23,24
 500 1262 500 1262 758 1470 c 1,25,26
 1016 1675 1016 1675 1106 1855 c 1,27,28
 1192 2036 1192 2036 1192 2392 c 0,29,30
 1192 2421 1192 2421 1192 2454 c 0,31,32
 1192 2580 1192 2580 1167 2736 c 1,33,34
 1130 2925 1130 2925 1036 3060 c 1,35,36
 942 3191 942 3191 782 3191 c 0,37,38
 401 3191 401 3191 250 2929 c 1,39,-1
 250 2343 l 1,40,-1
 168 2343 l 1,41,-1
 168 3359 l 1,42,-1
 250 3359 l 1,43,-1
 250 3154 l 1,44,-1
 279 3158 l 1,45,46
 348 3183 348 3183 438 3215 c 0,47,48
 528 3248 528 3248 610 3264.5 c 128,-1,49
 692 3281 692 3281 815 3281 c 0,50,51
 827 3281 827 3281 840 3281 c 0,52,53
 1192 3281 1192 3281 1499 3084 c 1,54,55
 1815 2875 1815 2875 1815 2449 c 0,56,57
 1815 2216 1815 2216 1716 2044 c 0,58,59
 1614 1868 1614 1868 1458 1737 c 1,60,61
 1298 1606 1298 1606 1143 1524 c 1,62,63
 983 1442 983 1442 872 1384 c 1,64,65
 553 1212 553 1212 410 1073 c 1,66,67
 262 934 262 934 258 672 c 1,68,-1
 250 512 l 1,69,70
 512 598 512 598 647 598 c 0,71,72
 659 598 659 598 672 598 c 0,73,74
 766 598 766 598 930 545 c 1,75,76
 1090 492 1090 492 1159 487 c 1,77,78
 1528 557 1528 557 1671 815 c 1,0,-1
EndSplineSet
Validated: 1
EndChar

StartChar: three
Encoding: 51 51 6
Width: 2122
Flags: W
LayerCount: 2
Fore
SplineSet
1360 1016 m 1,0,1
 1360 1823 1360 1823 831 1823 c 2,2,-1
 672 1823 l 1,3,-1
 672 1913 l 1,4,-1
 823 1913 l 2,5,6
 1335 1913 1335 1913 1335 2626 c 0,7,8
 1335 3162 1335 3162 991 3191 c 1,9,10
 967 3191 967 3191 942 3191 c 0,11,12
 823 3191 823 3191 688 3138 c 1,13,14
 524 3072 524 3072 463 2929 c 1,15,-1
 463 2343 l 1,16,-1
 377 2343 l 1,17,-1
 377 3359 l 1,18,-1
 463 3359 l 1,19,-1
 463 3154 l 1,20,21
 750 3281 750 3281 1024 3281 c 0,22,23
 1241 3281 1241 3281 1438 3195 c 1,24,25
 1630 3109 1630 3109 1749 2949 c 1,26,27
 1864 2785 1864 2785 1864 2560 c 0,28,29
 1864 2552 1864 2552 1864 2544 c 0,30,31
 1864 2372 1864 2372 1794 2257 c 1,32,33
 1720 2130 1720 2130 1622 2060 c 0,34,35
 1524 1991 1524 1991 1421 1946 c 1,36,37
 1319 1896 1319 1896 1319 1888 c 0,38,39
 1319 1884 1319 1884 1446 1839 c 1,40,41
 1569 1790 1569 1790 1683 1712 c 1,42,43
 1798 1630 1798 1630 1892 1446 c 1,44,45
 1974 1282 1974 1282 1974 1057 c 0,46,47
 1974 1028 1974 1028 1974 999 c 1,48,49
 1962 721 1962 721 1794 479 c 1,50,51
 1626 233 1626 233 1364 102 c 1,52,53
 1147 -4 1147 -4 938 -4 c 0,54,55
 893 -4 893 -4 848 0 c 1,56,57
 745 12 745 12 672 33 c 1,58,59
 594 53 594 53 524 82 c 1,60,61
 451 106 451 106 287 168 c 1,62,-1
 250 184 l 1,63,-1
 250 -66 l 1,64,-1
 160 -66 l 1,65,-1
 160 1032 l 1,66,-1
 250 1032 l 1,67,-1
 250 463 l 1,68,69
 328 299 328 299 504 201 c 1,70,71
 659 111 659 111 791 111 c 0,72,73
 807 111 807 111 823 111 c 1,74,75
 995 123 995 123 1171 307 c 0,76,77
 1348 492 1348 492 1360 1016 c 1,0,1
EndSplineSet
Validated: 1
EndChar

StartChar: four
Encoding: 52 52 7
Width: 2408
Flags: W
LayerCount: 2
Fore
SplineSet
1266 2318 m 1,0,-1
 721 1593 l 1,1,2
 528 1315 528 1315 520 1176 c 1,3,4
 537 1126 537 1126 537 1118 c 1,5,6
 569 1032 569 1032 770 1016 c 1,7,8
 791 1024 791 1024 815 1024 c 2,9,-1
 1266 1024 l 1,10,-1
 1266 2318 l 1,0,-1
152 930 m 1,11,12
 152 930 152 930 152 930 c 1,13,14
 152 934 152 934 135 950 c 1,15,16
 143 983 143 983 152 999 c 0,17,18
 160 1012 160 1012 192.5 1053 c 128,-1,19
 225 1094 225 1094 250 1126 c 2,20,-1
 1831 3240 l 1,21,-1
 1937 3199 l 1,22,23
 1831 2916 1831 2916 1831 2761 c 2,24,-1
 1831 1024 l 1,25,-1
 2281 1024 l 1,26,-1
 2281 938 l 1,27,-1
 1823 938 l 1,28,-1
 1823 86 l 1,29,-1
 2130 86 l 1,30,-1
 2130 0 l 1,31,-1
 958 0 l 1,32,-1
 958 86 l 1,33,-1
 1266 86 l 1,34,-1
 1266 938 l 1,35,-1
 393 938 l 2,36,37
 385 938 385 938 201 913 c 1,38,39
 184 922 184 922 176 926 c 1,40,41
 164 926 164 926 152 930 c 1,11,12
EndSplineSet
Validated: 1
EndChar

StartChar: five
Encoding: 53 53 8
Width: 2105
Flags: W
LayerCount: 2
Fore
SplineSet
1593 3113 m 0,0,1
 1741 3142 1741 3142 1880 3265 c 1,2,-1
 1946 3224 l 1,3,4
 1827 3031 1827 3031 1634 2925 c 0,5,6
 1438 2818 1438 2818 1225 2810 c 1,7,8
 1184 2810 1184 2810 1159 2802 c 1,9,10
 926 2814 926 2814 745 2912 c 1,11,-1
 393 1896 l 1,12,13
 635 2056 635 2056 958 2056 c 0,14,15
 1237 2056 1237 2056 1466 1917 c 1,16,17
 1696 1774 1696 1774 1823 1528 c 1,18,19
 1929 1307 1929 1307 1929 1065 c 0,20,21
 1929 1032 1929 1032 1929 999 c 1,22,23
 1905 737 1905 737 1737 500 c 1,24,25
 1565 262 1565 262 1327 127 c 0,26,27
 1102 0 1102 0 872 0 c 0,28,29
 860 0 860 0 848 0 c 0,30,31
 737 8 737 8 668 29 c 1,32,33
 598 45 598 45 487 90 c 1,34,35
 373 135 373 135 287 168 c 1,36,-1
 250 184 l 1,37,-1
 250 -66 l 1,38,-1
 160 -66 l 1,39,-1
 160 1032 l 1,40,-1
 250 1032 l 1,41,-1
 250 463 l 1,42,43
 328 299 328 299 504 209 c 128,-1,44
 680 119 680 119 840 111 c 0,45,46
 848 111 848 111 856 111 c 0,47,48
 1016 111 1016 111 1171 311 c 0,49,50
 1331 516 1331 516 1360 1016 c 1,51,-1
 1360 1159 l 2,52,53
 1360 1925 1360 1925 848 1962 c 1,54,55
 696 1962 696 1962 496 1876 c 1,56,57
 291 1786 291 1786 287 1479 c 1,58,59
 295 1462 295 1462 295 1425 c 1,60,-1
 303 1335 l 1,61,-1
 217 1335 l 1,62,-1
 209 1425 l 1,63,64
 209 1438 209 1438 209 1450 c 0,65,66
 209 1593 209 1593 287 1815 c 2,67,-1
 791 3265 l 1,68,69
 1004 3097 1004 3097 1360 3080 c 1,70,71
 1393 3084 1393 3084 1442 3092 c 1,72,73
 1491 3097 1491 3097 1524 3101 c 0,74,75
 1552 3105 1552 3105 1593 3113 c 0,0,1
EndSplineSet
Validated: 1
EndChar

StartChar: six
Encoding: 54 54 9
Width: 2400
Flags: W
LayerCount: 2
Fore
SplineSet
762 1864 m 2,0,-1
 762 1729 l 1,1,-1
 823 1786 l 1,2,3
 1106 1987 1106 1987 1343 1999 c 0,4,5
 1360 1999 1360 1999 1376 1999 c 0,6,7
 1565 1999 1565 1999 1757 1917 c 1,8,9
 1962 1827 1962 1827 2105 1610 c 1,10,11
 2249 1389 2249 1389 2249 1040 c 1,12,13
 2245 774 2245 774 2097 537 c 0,14,15
 1946 295 1946 295 1716 152 c 1,16,17
 1491 8 1491 8 1274 8 c 0,18,19
 1270 8 1270 8 1266 8 c 0,20,21
 1016 12 1016 12 811 156 c 1,22,23
 602 299 602 299 451 545 c 1,24,25
 299 786 299 786 225 1069 c 0,26,27
 152 1348 152 1348 152 1638 c 1,28,29
 160 2019 160 2019 299 2380 c 1,30,31
 434 2740 434 2740 696 2970 c 1,32,33
 954 3195 954 3195 1319 3232 c 0,34,35
 1364 3236 1364 3236 1397 3240 c 1,36,37
 1430 3240 1430 3240 1479 3240 c 0,38,39
 1675 3240 1675 3240 1905 3158 c 1,40,-1
 1929 3154 l 1,41,-1
 1929 3359 l 1,42,-1
 2015 3359 l 1,43,-1
 2015 2343 l 1,44,-1
 1929 2343 l 1,45,-1
 1929 2929 l 1,46,47
 1700 3146 1700 3146 1352 3146 c 1,48,49
 1159 3142 1159 3142 1028 2945 c 1,50,51
 893 2748 893 2748 827 2449 c 0,52,53
 762 2150 762 2150 762 1864 c 2,0,-1
762 1602 m 1,54,-1
 762 1511 l 2,55,56
 762 897 762 897 848 504 c 128,-1,57
 934 111 934 111 1225 111 c 0,58,59
 1229 111 1229 111 1233 111 c 0,60,61
 1655 111 1655 111 1671 1016 c 1,62,-1
 1671 1118 l 2,63,64
 1671 1450 1671 1450 1593 1671 c 0,65,66
 1516 1888 1516 1888 1266 1888 c 0,67,68
 1143 1888 1143 1888 1061 1839 c 1,69,70
 975 1790 975 1790 831 1663 c 2,71,-1
 762 1602 l 1,54,-1
EndSplineSet
Validated: 1
EndChar

StartChar: seven
Encoding: 55 55 10
Width: 2064
Flags: W
LayerCount: 2
Fore
SplineSet
1110 111 m 2,0,-1
 1110 0 l 1,1,-1
 545 0 l 1,2,-1
 545 111 l 2,3,4
 545 647 545 647 831 1368 c 1,5,6
 1122 2159 1122 2159 1593 2818 c 1,7,-1
 1638 2888 l 1,8,9
 1528 2822 1528 2822 1352 2810 c 1,10,11
 1290 2822 1290 2822 1052.5 2883.5 c 128,-1,12
 815 2945 815 2945 688 2945 c 0,13,14
 414 2945 414 2945 242 2646 c 1,15,-1
 242 2367 l 1,16,-1
 152 2367 l 1,17,-1
 152 3351 l 1,18,-1
 242 3351 l 1,19,-1
 242 3174 l 1,20,-1
 279 3191 l 1,21,22
 446 3265 446 3265 623 3265 c 0,23,24
 729 3265 729 3265 856 3224 c 1,25,26
 979 3178 979 3178 1114 3121 c 1,27,28
 1245 3060 1245 3060 1364 3023 c 1,29,30
 1466 2990 1466 2990 1536 2990 c 0,31,32
 1544 2990 1544 2990 1552 2990 c 1,33,34
 1716 3011 1716 3011 1831 3146 c 1,35,-1
 1880 3199 l 1,36,-1
 1954 3158 l 1,37,-1
 1880 3080 l 1,38,39
 1778 2953 1778 2953 1708 2818 c 1,40,41
 1634 2683 1634 2683 1565 2523 c 0,42,43
 1495 2359 1495 2359 1417 2175 c 1,44,45
 1311 1933 1311 1933 1237 1597 c 0,46,47
 1163 1257 1163 1257 1139 889 c 1,48,49
 1110 516 1110 516 1110 111 c 2,0,-1
EndSplineSet
Validated: 1
EndChar

StartChar: eight
Encoding: 56 56 11
Width: 2089
Flags: W
LayerCount: 2
Fore
SplineSet
696 1671 m 1,0,1
 279 1999 279 1999 270 2408 c 1,2,3
 270 2654 270 2654 451 2961 c 1,4,5
 631 3269 631 3269 1106 3281 c 1,6,7
 1384 3281 1384 3281 1585 3109 c 1,8,9
 1782 2937 1782 2937 1794 2671 c 0,10,11
 1794 2654 1794 2654 1794 2638 c 0,12,13
 1794 2183 1794 2183 1343 1913 c 1,14,-1
 1311 1888 l 1,15,16
 1954 1520 1954 1520 1954 975 c 0,17,18
 1954 733 1954 733 1819 504 c 1,19,20
 1679 274 1679 274 1454 139 c 1,21,22
 1225 0 1225 0 983 0 c 0,23,24
 635 0 635 0 405.5 241.5 c 128,-1,25
 176 483 176 483 135 840 c 1,26,27
 143 1085 143 1085 287 1294 c 1,28,29
 426 1503 426 1503 664 1647 c 1,30,-1
 696 1671 l 1,0,1
762 1622 m 1,31,-1
 713 1602 l 1,32,33
 553 1507 553 1507 463 1303 c 1,34,35
 369 1094 369 1094 360 856 c 1,36,37
 369 520 369 520 537 295 c 0,38,39
 696 82 696 82 983 82 c 0,40,41
 999 82 999 82 1016 82 c 0,42,43
 1307 94 1307 94 1450 245.5 c 128,-1,44
 1593 397 1593 397 1593 631 c 0,45,46
 1593 811 1593 811 1520 954 c 1,47,48
 1442 1094 1442 1094 1327 1204 c 1,49,50
 1208 1311 1208 1311 1028 1438 c 1,51,52
 848 1561 848 1561 762 1622 c 1,31,-1
1249 1929 m 1,53,-1
 1303 1974 l 1,54,55
 1475 2114 1475 2114 1552 2314 c 0,56,57
 1618 2486 1618 2486 1618 2634 c 0,58,59
 1618 2658 1618 2658 1618 2679 c 1,60,61
 1593 2900 1593 2900 1458 3043 c 0,62,63
 1327 3183 1327 3183 1126 3183 c 0,64,65
 1122 3183 1122 3183 1118 3183 c 0,66,67
 893 3183 893 3183 758 3056 c 128,-1,68
 623 2929 623 2929 614 2736 c 1,69,70
 623 2527 623 2527 786 2310 c 1,71,72
 946 2093 946 2093 1249 1929 c 1,53,-1
EndSplineSet
Validated: 1
EndChar

StartChar: nine
Encoding: 57 57 12
Width: 2343
Flags: W
LayerCount: 2
Fore
SplineSet
1610 1327 m 2,0,-1
 1610 1462 l 1,1,-1
 1536 1417 l 1,2,3
 1307 1229 1307 1229 1032 1217 c 0,4,5
 1024 1217 1024 1217 1016 1217 c 0,6,7
 713 1217 713 1217 438 1458 c 1,8,9
 156 1708 156 1708 152 2191 c 1,10,11
 160 2208 160 2208 160 2212 c 256,12,13
 160 2216 160 2216 160 2216 c 1,14,15
 164 2478 164 2478 311 2720 c 0,16,17
 455 2957 455 2957 680 3109 c 1,18,19
 901 3256 901 3256 1110 3256 c 0,20,21
 1114 3256 1114 3256 1118 3256 c 0,22,23
 1446 3252 1446 3252 1696 3027 c 1,24,25
 1946 2798 1946 2798 2081 2437 c 1,26,27
 2208 2093 2208 2093 2208 1737 c 0,28,29
 2208 1716 2208 1716 2208 1696 c 0,30,31
 2200 1278 2200 1278 2032 885 c 1,32,33
 1860 487 1860 487 1573 238 c 0,34,35
 1290 -8 1290 -8 967 -8 c 0,36,37
 963 -8 963 -8 958 -8 c 0,38,39
 688 4 688 4 455 135 c 1,40,-1
 455 -74 l 1,41,-1
 369 -74 l 1,42,-1
 369 950 l 1,43,-1
 455 950 l 1,44,-1
 455 369 l 1,45,46
 557 238 557 238 700 160 c 1,47,48
 840 82 840 82 967 82 c 1,49,50
 1200 94 1200 94 1343 283 c 1,51,52
 1487 471 1487 471 1548 750 c 1,53,54
 1610 1028 1610 1028 1610 1327 c 2,0,-1
1610 1593 m 1,55,-1
 1610 1679 l 1,56,-1
 1610 1946 l 2,57,58
 1610 2503 1610 2503 1528 2830 c 1,59,60
 1442 3154 1442 3154 1159 3154 c 0,61,62
 729 3154 729 3154 713 2273 c 1,63,64
 713 2208 713 2208 705 2150 c 1,65,66
 713 1843 713 1843 766 1614 c 1,67,68
 819 1380 819 1380 975 1343 c 1,69,70
 1008 1339 1008 1339 1036 1335 c 1,71,72
 1065 1327 1065 1327 1106 1319 c 1,73,74
 1364 1327 1364 1327 1610 1593 c 1,55,-1
EndSplineSet
Validated: 1
EndChar

StartChar: zero
Encoding: 48 48 13
Width: 2609
Flags: W
LayerCount: 2
Fore
SplineSet
1311 3273 m 0,0,1
 1589 3273 1589 3273 1815 3129 c 0,2,3
 2040 2986 2040 2986 2187 2753 c 1,4,5
 2331 2515 2331 2515 2404 2228 c 1,6,7
 2474 1937 2474 1937 2474 1638 c 0,8,9
 2474 1348 2474 1348 2404 1061 c 1,10,11
 2331 770 2331 770 2187 532 c 0,12,13
 2040 291 2040 291 1819 147 c 0,14,15
 1593 0 1593 0 1311 0 c 0,16,17
 942 0 942 0 680 242 c 1,18,19
 418 479 418 479 287 856 c 1,20,21
 152 1229 152 1229 152 1638 c 0,22,23
 152 2277 152 2277 459 2777 c 1,24,25
 766 3273 766 3273 1311 3273 c 0,0,1
705 1630 m 0,26,27
 705 1487 705 1487 696 1409 c 1,28,29
 705 799 705 799 819 446 c 1,30,31
 930 94 930 94 1303 94 c 0,32,33
 1679 94 1679 94 1794 446 c 1,34,35
 1905 799 1905 799 1905 1409 c 2,36,-1
 1905 1823 l 2,37,38
 1905 2408 1905 2408 1790 2793 c 1,39,40
 1675 3174 1675 3174 1303 3174 c 0,41,42
 930 3174 930 3174 819 2818 c 1,43,44
 705 2462 705 2462 696 1847 c 1,45,46
 705 1778 705 1778 705 1630 c 0,26,27
EndSplineSet
Validated: 1
EndChar

StartChar: hyphen
Encoding: 45 45 14
Width: 1409
Flags: W
LayerCount: 2
Fore
SplineSet
1241 463 m 1,0,-1
 160 463 l 1,1,-1
 160 762 l 1,2,-1
 1241 762 l 1,3,-1
 1241 463 l 1,0,-1
EndSplineSet
Validated: 1
EndChar

StartChar: equal
Encoding: 61 61 15
Width: 1266
Flags: W
LayerCount: 2
Fore
SplineSet
1098 639 m 1,0,-1
 160 639 l 1,1,-1
 160 938 l 1,2,-1
 1098 938 l 1,3,-1
 1098 639 l 1,0,-1
1098 1257 m 1,4,-1
 160 1257 l 1,5,-1
 160 1544 l 1,6,-1
 1098 1544 l 1,7,-1
 1098 1257 l 1,4,-1
EndSplineSet
Validated: 1
EndChar

StartChar: q
Encoding: 113 113 16
Width: 1815
Flags: W
LayerCount: 2
Fore
SplineSet
1159 463 m 2,0,-1
 1159 872 l 2,1,2
 1159 1012 1159 1012 1073 1126 c 1,3,4
 995 1225 995 1225 868 1225 c 0,5,6
 856 1225 856 1225 840 1225 c 1,7,8
 721 1212 721 1212 659 1020 c 1,9,10
 594 823 594 823 594 631 c 1,11,12
 602 393 602 393 672 229 c 1,13,14
 729 90 729 90 868 90 c 0,15,16
 897 90 897 90 930 94 c 1,17,18
 1159 147 1159 147 1159 463 c 2,0,-1
1585 1327 m 1,19,-1
 1585 -680 l 1,20,-1
 1798 -680 l 1,21,-1
 1798 -745 l 1,22,-1
 958 -745 l 1,23,-1
 958 -680 l 1,24,-1
 1176 -680 l 1,25,-1
 1176 160 l 1,26,27
 1036 29 1036 29 815 8 c 1,28,29
 786 4 786 4 758 4 c 0,30,31
 532 4 532 4 340 172 c 1,32,33
 123 356 123 356 119 606 c 1,34,35
 127 614 127 614 127 618 c 0,36,37
 127 623 127 623 127 623 c 1,38,39
 135 938 135 938 348 1143 c 0,40,41
 528 1315 528 1315 766 1315 c 0,42,43
 807 1315 807 1315 848 1311 c 1,44,45
 971 1294 971 1294 1151 1184 c 1,46,-1
 1176 1167 l 1,47,48
 1335 1196 1335 1196 1585 1327 c 1,19,-1
EndSplineSet
Validated: 1
EndChar

StartChar: w
Encoding: 119 119 17
Width: 2433
Flags: W
LayerCount: 2
Fore
SplineSet
1470 1319 m 1,0,-1
 1778 561 l 1,1,-1
 1913 881 l 1,2,3
 1991 1085 1991 1085 1991 1143 c 0,4,5
 1991 1212 1991 1212 1942 1241 c 1,6,7
 1892 1266 1892 1266 1823 1266 c 2,8,-1
 1794 1266 l 1,9,-1
 1794 1319 l 1,10,-1
 2298 1319 l 1,11,-1
 2298 1266 l 1,12,-1
 2265 1266 l 2,13,14
 2126 1266 2126 1266 1999 922 c 1,15,-1
 1622 -16 l 1,16,-1
 1561 -16 l 1,17,-1
 1225 774 l 1,18,-1
 840 -16 l 1,19,-1
 774 -16 l 1,20,-1
 233 1257 l 1,21,-1
 127 1257 l 1,22,-1
 127 1319 l 1,23,-1
 913 1319 l 1,24,-1
 913 1257 l 1,25,-1
 774 1257 l 1,26,-1
 1024 528 l 1,27,-1
 1409 1319 l 1,28,-1
 1470 1319 l 1,0,-1
EndSplineSet
Validated: 1
EndChar

StartChar: e
Encoding: 101 101 18
Width: 1655
Flags: W
LayerCount: 2
Fore
SplineSet
586 729 m 1,0,-1
 938 729 l 2,1,2
 1028 729 1028 729 1069 807 c 1,3,4
 1106 881 1106 881 1106 983 c 0,5,6
 1106 1229 1106 1229 913 1229 c 0,7,8
 893 1229 893 1229 872 1225 c 0,9,10
 672 1196 672 1196 586 729 c 1,0,-1
1057 49 m 0,11,12
 1069 49 1069 49 1081 49 c 0,13,14
 1307 49 1307 49 1520 287 c 1,15,-1
 1520 193 l 1,16,17
 1352 61 1352 61 1253 25 c 1,18,19
 1155 -12 1155 -12 1016 -16 c 1,20,21
 971 -20 971 -20 926 -20 c 0,22,23
 618 -20 618 -20 401 131 c 0,24,25
 152 303 152 303 135 598 c 1,26,27
 135 618 135 618 135 639 c 0,28,29
 135 922 135 922 328 1114 c 1,30,31
 537 1319 537 1319 840 1319 c 0,32,33
 1126 1319 1126 1319 1327 1134.5 c 128,-1,34
 1528 950 1528 950 1528 672 c 1,35,-1
 586 672 l 1,36,37
 586 655 586 655 586 639 c 0,38,39
 586 418 586 418 688 250 c 1,40,41
 799 70 799 70 1057 49 c 0,11,12
EndSplineSet
Validated: 1
EndChar

StartChar: r
Encoding: 114 114 19
Width: 1479
Flags: W
LayerCount: 2
Fore
SplineSet
770 983 m 1,0,1
 938 1311 938 1311 1159 1311 c 0,2,3
 1225 1311 1225 1311 1257 1303 c 1,4,-1
 1257 1401 l 1,5,-1
 1319 1401 l 1,6,-1
 1319 774 l 1,7,-1
 1257 774 l 1,8,-1
 1249 856 l 1,9,10
 1249 1081 1249 1081 1118 1110 c 0,11,12
 1085 1118 1085 1118 1057 1118 c 0,13,14
 950 1118 950 1118 872 995 c 0,15,16
 770 836 770 836 770 639 c 2,17,-1
 770 66 l 1,18,-1
 991 66 l 1,19,-1
 991 0 l 1,20,-1
 135 0 l 1,21,-1
 135 66 l 1,22,-1
 352 66 l 1,23,-1
 352 1208 l 1,24,-1
 135 1208 l 1,25,-1
 135 1286 l 1,26,27
 233 1286 233 1286 270 1282 c 1,28,29
 557 1303 557 1303 770 1343 c 1,30,-1
 770 983 l 1,0,1
EndSplineSet
Validated: 1
EndChar

StartChar: t
Encoding: 116 116 20
Width: 1200
Flags: W
LayerCount: 2
Fore
SplineSet
791 102 m 0,0,1
 844 102 844 102 881 127 c 1,2,3
 918 147 918 147 950 184 c 0,4,5
 983 221 983 221 1032 279 c 1,6,-1
 1090 233 l 1,7,8
 958 90 958 90 872 37 c 128,-1,9
 786 -16 786 -16 639 -16 c 0,10,11
 389 -16 389 -16 319 115 c 0,12,13
 250 246 250 246 242 496 c 1,14,15
 250 512 250 512 250 528 c 2,16,-1
 250 1040 l 1,17,-1
 143 1040 l 1,18,-1
 143 1110 l 1,19,-1
 250 1110 l 1,20,-1
 250 2359 l 1,21,-1
 655 2359 l 1,22,-1
 655 1110 l 1,23,-1
 1024 1110 l 1,24,-1
 1024 1040 l 1,25,-1
 655 1040 l 1,26,-1
 655 303 l 2,27,28
 655 102 655 102 782 102 c 0,29,30
 786 102 786 102 791 102 c 0,0,1
EndSplineSet
Validated: 1
EndChar

StartChar: y
Encoding: 121 121 21
Width: 1864
Flags: W
LayerCount: 2
Fore
SplineSet
848 -25 m 1,0,-1
 856 0 l 1,1,-1
 242 1257 l 1,2,-1
 135 1257 l 1,3,-1
 135 1319 l 1,4,-1
 942 1319 l 1,5,-1
 942 1257 l 1,6,-1
 799 1257 l 1,7,-1
 1135 512 l 1,8,-1
 1335 905 l 1,9,10
 1417 1102 1417 1102 1417 1143 c 0,11,12
 1417 1167 1417 1167 1417 1176 c 1,13,14
 1413 1184 1413 1184 1409 1192 c 0,15,16
 1376 1266 1376 1266 1241 1266 c 2,17,-1
 1208 1266 l 1,18,-1
 1208 1319 l 1,19,-1
 1720 1319 l 1,20,-1
 1720 1266 l 1,21,-1
 1696 1266 l 2,22,23
 1642 1266 1642 1266 1577 1200 c 0,24,25
 1524 1147 1524 1147 1466 1032 c 1,26,27
 1409 913 1409 913 1360 807 c 1,28,-1
 930 -33 l 1,29,-1
 905 -66 l 1,30,31
 688 -446 688 -446 565 -582 c 1,32,33
 438 -717 438 -717 143 -754 c 1,34,-1
 143 -217 l 1,35,-1
 201 -217 l 1,36,-1
 201 -311 l 2,37,38
 201 -537 201 -537 319 -537 c 0,39,40
 434 -537 434 -537 581.5 -397.5 c 128,-1,41
 729 -258 729 -258 848 -25 c 1,0,-1
EndSplineSet
Validated: 1
EndChar

StartChar: u
Encoding: 117 117 22
Width: 2040
Flags: W
LayerCount: 2
Fore
SplineSet
1257 647 m 2,0,-1
 1257 1208 l 1,1,-1
 1032 1208 l 1,2,-1
 1032 1286 l 1,3,4
 1106 1286 1106 1286 1135 1282 c 1,5,6
 1421 1286 1421 1286 1671 1343 c 1,7,-1
 1671 66 l 1,8,-1
 1888 66 l 1,9,-1
 1888 0 l 1,10,-1
 1257 0 l 1,11,-1
 1257 250 l 1,12,-1
 1217 209 l 1,13,14
 1008 0 1008 0 721 0 c 0,15,16
 590 0 590 0 504 49 c 1,17,18
 393 106 393 106 360 225 c 0,19,20
 328 340 328 340 319 528 c 1,21,22
 328 578 328 578 328 639 c 2,23,-1
 328 1192 l 1,24,-1
 127 1192 l 1,25,-1
 127 1274 l 1,26,27
 209 1274 209 1274 258 1266 c 1,28,29
 520 1278 520 1278 754 1335 c 1,30,-1
 754 569 l 2,31,32
 754 426 754 426 766 328 c 1,33,34
 774 225 774 225 815 160 c 1,35,36
 844 111 844 111 897 111 c 0,37,38
 922 111 922 111 950 119 c 0,39,40
 1106 160 1106 160 1184 311 c 1,41,42
 1257 459 1257 459 1257 647 c 2,0,-1
EndSplineSet
Validated: 1
EndChar

StartChar: i
Encoding: 105 105 23
Width: 1303
Flags: W
LayerCount: 2
Fore
SplineSet
856 66 m 1,0,-1
 1073 66 l 1,1,-1
 1073 0 l 1,2,-1
 233 0 l 1,3,-1
 233 66 l 1,4,-1
 446 66 l 1,5,-1
 446 1192 l 1,6,-1
 233 1192 l 1,7,-1
 233 1266 l 1,8,9
 295 1266 295 1266 336 1257 c 1,10,11
 623 1270 623 1270 856 1319 c 1,12,-1
 856 66 l 1,0,-1
606 1282 m 1,13,-1
 504 1896 l 1,14,-1
 713 1896 l 1,15,-1
 606 1282 l 1,13,-1
EndSplineSet
Validated: 1
EndChar

StartChar: o
Encoding: 111 111 24
Width: 1806
Flags: W
LayerCount: 2
Fore
SplineSet
1647 639 m 0,0,1
 1647 446 1647 446 1540 299 c 0,2,3
 1434 152 1434 152 1257 70 c 1,4,5
 1077 -16 1077 -16 881 -16 c 0,6,7
 586 -16 586 -16 360 168 c 1,8,9
 135 348 135 348 135 631 c 0,10,11
 135 893 135 893 360 1106 c 1,12,13
 582 1319 582 1319 872 1319 c 0,14,15
 1081 1319 1081 1319 1257 1233 c 0,16,17
 1434 1147 1434 1147 1540 991 c 1,18,19
 1647 836 1647 836 1647 639 c 0,0,1
872 1266 m 0,20,21
 729 1266 729 1266 664 1073 c 1,22,23
 594 881 594 881 594 664 c 0,24,25
 594 438 594 438 664 242 c 1,26,27
 729 41 729 41 872 41 c 0,28,29
 1167 41 1167 41 1167 664 c 0,30,31
 1167 934 1167 934 1114 1102 c 1,32,33
 1057 1266 1057 1266 872 1266 c 0,20,21
EndSplineSet
Validated: 1
EndChar

StartChar: p
Encoding: 112 112 25
Width: 1962
Flags: W
LayerCount: 2
Fore
SplineSet
774 872 m 2,0,-1
 774 463 l 2,1,2
 774 131 774 131 1008 86 c 1,3,4
 1036 82 1036 82 1061 82 c 0,5,6
 1315 82 1315 82 1335 631 c 0,7,8
 1335 643 1335 643 1335 659 c 0,9,10
 1335 750 1335 750 1315 872 c 1,11,12
 1290 1016 1290 1016 1237 1118 c 0,13,14
 1184 1221 1184 1221 1098 1225 c 0,15,16
 1081 1225 1081 1225 1069 1225 c 0,17,18
 942 1225 942 1225 864 1126 c 1,19,20
 774 1016 774 1016 774 872 c 2,0,-1
762 1327 m 1,21,-1
 762 1167 l 1,22,23
 905 1290 905 1290 1090 1311 c 0,24,25
 1118 1315 1118 1315 1147 1315 c 0,26,27
 1303 1315 1303 1315 1438 1245 c 0,28,29
 1602 1159 1602 1159 1700 995 c 128,-1,30
 1798 831 1798 831 1806 623 c 1,31,32
 1806 377 1806 377 1610 193 c 1,33,34
 1409 8 1409 8 1143 0 c 1,35,36
 1135 8 1135 8 1118 8 c 0,37,38
 995 12 995 12 938 41 c 1,39,40
 877 70 877 70 762 160 c 1,41,-1
 762 -664 l 1,42,-1
 975 -664 l 1,43,-1
 975 -729 l 1,44,-1
 135 -729 l 1,45,-1
 135 -664 l 1,46,-1
 352 -664 l 1,47,-1
 352 1200 l 1,48,-1
 135 1200 l 1,49,-1
 135 1274 l 1,50,51
 201 1274 201 1274 242 1266 c 1,52,53
 557 1278 557 1278 762 1327 c 1,21,-1
EndSplineSet
Validated: 1
EndChar

StartChar: bracketleft
Encoding: 91 91 26
Width: 1200
Flags: W
LayerCount: 2
Fore
SplineSet
991 -102 m 1,0,-1
 991 -430 l 1,1,-1
 168 -430 l 1,2,-1
 168 3658 l 1,3,-1
 168 3666 l 1,4,-1
 991 3666 l 1,5,-1
 991 3359 l 1,6,-1
 504 3359 l 1,7,-1
 504 -102 l 1,8,-1
 991 -102 l 1,0,-1
EndSplineSet
Validated: 1
EndChar

StartChar: bracketright
Encoding: 93 93 27
Width: 1200
Flags: W
LayerCount: 2
Fore
SplineSet
168 3342 m 1,0,-1
 168 3670 l 1,1,-1
 991 3670 l 1,2,-1
 991 -418 l 1,3,-1
 991 -426 l 1,4,-1
 168 -426 l 1,5,-1
 168 -119 l 1,6,-1
 655 -119 l 1,7,-1
 655 3342 l 1,8,-1
 168 3342 l 1,0,-1
EndSplineSet
Validated: 1
EndChar

StartChar: backslash
Encoding: 92 92 28
Width: 2134
Flags: W
LayerCount: 2
Fore
SplineSet
135 3281 m 1,0,-1
 352 3281 l 1,1,-1
 2032 0 l 1,2,-1
 1839 0 l 1,3,-1
 135 3281 l 1,0,-1
EndSplineSet
Validated: 1
EndChar

StartChar: a
Encoding: 97 97 29
Width: 1847
Flags: W
LayerCount: 2
Fore
SplineSet
991 287 m 2,0,-1
 991 537 l 2,1,2
 991 651 991 651 926 725 c 1,3,4
 856 799 856 799 729 799 c 0,5,6
 549 799 549 799 537 471 c 0,7,8
 537 459 537 459 537 451 c 0,9,10
 537 295 537 295 594 180 c 0,11,12
 655 57 655 57 770 57 c 1,13,14
 868 61 868 61 929.5 135 c 128,-1,15
 991 209 991 209 991 287 c 2,0,-1
385 1335 m 1,16,-1
 385 1184 l 1,17,18
 586 1319 586 1319 848 1319 c 1,19,20
 1044 1311 1044 1311 1229 1217 c 1,21,22
 1409 1122 1409 1122 1409 938 c 2,23,-1
 1409 287 l 2,24,25
 1409 115 1409 115 1495 102 c 1,26,27
 1581 115 1581 115 1671 184 c 1,28,-1
 1720 143 l 1,29,30
 1511 0 1511 0 1294 0 c 0,31,32
 1094 0 1094 0 1016 152 c 1,33,34
 860 -16 860 -16 647 -16 c 0,35,36
 438 -16 438 -16 279 119 c 1,37,38
 127 246 127 246 127 434 c 0,39,40
 127 446 127 446 127 463 c 1,41,42
 139 664 139 664 307 766 c 1,43,44
 475 864 475 864 688 864 c 0,45,46
 856 864 856 864 991 774 c 1,47,-1
 991 1016 l 2,48,49
 991 1221 991 1221 840 1233 c 1,50,51
 803 1237 803 1237 770 1237 c 0,52,53
 647 1237 647 1237 532 1171 c 1,54,55
 385 1085 385 1085 385 967 c 2,56,-1
 385 922 l 1,57,-1
 319 922 l 1,58,-1
 319 1335 l 1,59,-1
 385 1335 l 1,16,-1
EndSplineSet
Validated: 1
EndChar

StartChar: s
Encoding: 115 115 30
Width: 1233
Flags: W
LayerCount: 2
Fore
SplineSet
217 111 m 1,0,-1
 201 119 l 1,1,-1
 201 -33 l 1,2,-1
 135 -33 l 1,3,-1
 135 496 l 1,4,-1
 201 496 l 1,5,-1
 201 438 l 2,6,7
 201 274 201 274 315 164 c 1,8,9
 426 49 426 49 569 41 c 1,10,11
 754 78 754 78 754 184 c 0,12,13
 754 307 754 307 659 377 c 1,14,15
 561 446 561 446 352 569 c 0,16,17
 184 668 184 668 168 897 c 1,18,19
 176 1081 176 1081 315 1208 c 1,20,21
 438 1319 438 1319 635 1319 c 0,22,23
 659 1319 659 1319 688 1319 c 1,24,25
 799 1303 799 1303 950 1225 c 2,26,-1
 983 1208 l 1,27,-1
 983 1343 l 1,28,-1
 1049 1343 l 1,29,-1
 1049 872 l 1,30,-1
 983 872 l 1,31,-1
 975 975 l 1,32,33
 963 1110 963 1110 860 1180 c 1,34,35
 766 1241 766 1241 655 1241 c 0,36,37
 643 1241 643 1241 631 1241 c 0,38,39
 557 1241 557 1241 508 1200 c 1,40,41
 459 1155 459 1155 455 1098 c 1,42,43
 471 1024 471 1024 532 967 c 1,44,45
 590 909 590 909 643 880.5 c 128,-1,46
 696 852 696 852 815 791 c 1,47,48
 1106 659 1106 659 1106 418 c 0,49,50
 1106 303 1106 303 1036 201 c 1,51,52
 967 98 967 98 848 36.5 c 128,-1,53
 729 -25 729 -25 606 -25 c 0,54,55
 406 -25 406 -25 217 111 c 1,0,-1
EndSplineSet
Validated: 1
EndChar

StartChar: d
Encoding: 100 100 31
Width: 1929
Flags: W
LayerCount: 2
Fore
SplineSet
1151 0 m 1,0,-1
 1151 143 l 1,1,2
 1077 78 1077 78 1012 45 c 1,3,4
 942 8 942 8 815 0 c 1,5,6
 786 0 786 0 758 0 c 0,7,8
 475 0 475 0 315 156 c 1,9,10
 135 328 135 328 127 598 c 1,11,12
 135 614 135 614 135 618 c 0,13,14
 135 623 135 623 135 623 c 1,15,16
 139 831 139 831 242 991 c 1,17,18
 340 1147 340 1147 500 1233 c 1,19,20
 639 1303 639 1303 799 1303 c 0,21,22
 823 1303 823 1303 848 1303 c 1,23,24
 1044 1290 1044 1290 1159 1159 c 1,25,-1
 1159 3154 l 1,26,-1
 950 3154 l 1,27,-1
 950 3224 l 1,28,29
 1016 3224 1016 3224 1049 3215 c 1,30,31
 1352 3228 1352 3228 1577 3281 c 1,32,-1
 1577 66 l 1,33,-1
 1786 66 l 1,34,-1
 1786 0 l 1,35,-1
 1151 0 l 1,0,-1
1159 463 m 2,36,-1
 1159 872 l 2,37,38
 1159 1032 1159 1032 1077 1135 c 0,39,40
 1008 1221 1008 1221 889 1221 c 0,41,42
 864 1221 864 1221 840 1217 c 1,43,44
 721 1204 721 1204 659 1012 c 1,45,46
 598 819 598 819 598 623 c 0,47,48
 598 410 598 410 680 225 c 1,49,50
 750 70 750 70 889 70 c 0,51,52
 913 70 913 70 938 74 c 1,53,54
 1159 123 1159 123 1159 463 c 2,36,-1
EndSplineSet
Validated: 1
EndChar

StartChar: f
Encoding: 102 102 32
Width: 1151
Flags: W
LayerCount: 2
Fore
SplineSet
1016 1462 m 1,0,-1
 647 1462 l 1,1,-1
 647 0 l 1,2,-1
 233 0 l 1,3,-1
 233 1462 l 1,4,-1
 135 1462 l 1,5,-1
 135 1528 l 1,6,-1
 233 1528 l 1,7,-1
 233 2736 l 2,8,9
 233 2941 233 2941 373 3113 c 1,10,11
 508 3281 508 3281 713 3281 c 0,12,13
 750 3281 750 3281 786 3277 c 1,14,15
 819 3269 819 3269 852 3252 c 1,16,17
 885 3232 885 3232 922 3215 c 1,18,-1
 942 3199 l 1,19,-1
 942 3322 l 1,20,-1
 1008 3322 l 1,21,-1
 1008 2568 l 1,22,-1
 942 2568 l 1,23,-1
 942 2744 l 2,24,25
 942 3133 942 3133 745 3191 c 0,26,27
 733 3195 733 3195 721 3195 c 0,28,29
 688 3195 688 3195 672 3162 c 0,30,31
 647 3113 647 3113 639 3023 c 1,32,33
 647 2998 647 2998 647 2961 c 2,34,-1
 647 1528 l 1,35,-1
 1016 1528 l 1,36,-1
 1016 1462 l 1,0,-1
EndSplineSet
Validated: 1
EndChar

StartChar: g
Encoding: 103 103 33
Width: 1815
Flags: W
LayerCount: 2
Fore
SplineSet
1184 463 m 2,0,-1
 1184 864 l 2,1,2
 1184 995 1184 995 1081 1106 c 1,3,4
 987 1200 987 1200 864 1200 c 0,5,6
 848 1200 848 1200 831 1200 c 0,7,8
 713 1196 713 1196 655 1004 c 1,9,10
 594 811 594 811 594 623 c 0,11,12
 594 410 594 410 672 233 c 1,13,14
 737 78 737 78 877 78 c 0,15,16
 897 78 897 78 922 82 c 0,17,18
 1049 106 1049 106 1118 217 c 0,19,20
 1184 324 1184 324 1184 463 c 2,0,-1
1647 1081 m 1,21,22
 1634 1004 1634 1004 1622 889 c 1,23,24
 1630 848 1630 848 1630 762 c 2,25,-1
 1630 -217 l 2,26,27
 1630 -369 1630 -369 1532 -487 c 0,28,29
 1430 -610 1430 -610 1274 -676 c 1,30,31
 1118 -745 1118 -745 975 -745 c 0,32,33
 868 -745 868 -745 774 -713 c 1,34,35
 676 -684 676 -684 463 -586 c 1,36,-1
 438 -578 l 1,37,-1
 438 -754 l 1,38,-1
 377 -754 l 1,39,-1
 377 -217 l 1,40,-1
 438 -217 l 1,41,-1
 455 -270 l 1,42,43
 496 -463 496 -463 623 -561 c 1,44,45
 745 -664 745 -664 897 -664 c 0,46,47
 1069 -664 1069 -664 1176 -578 c 1,48,-1
 1176 152 l 1,49,50
 1077 78 1077 78 1015.5 49 c 128,-1,51
 954 20 954 20 815 8 c 0,52,53
 774 4 774 4 737 4 c 0,54,55
 475 4 475 4 315 156 c 1,56,57
 135 324 135 324 127 594 c 1,58,59
 135 610 135 610 135 614 c 0,60,61
 143 770 143 770 200.5 897 c 128,-1,62
 258 1024 258 1024 356 1114 c 0,63,64
 451 1200 451 1200 578 1249 c 1,65,66
 680 1286 680 1286 799 1286 c 0,67,68
 819 1286 819 1286 840 1286 c 0,69,70
 987 1282 987 1282 1151 1184 c 1,71,-1
 1200 1159 l 1,72,-1
 1249 1327 l 1,73,74
 1454 1245 1454 1245 1696 1233 c 1,75,76
 1683 1184 1683 1184 1671 1155 c 128,-1,77
 1659 1126 1659 1126 1647 1081 c 1,21,22
EndSplineSet
Validated: 1
EndChar

StartChar: h
Encoding: 104 104 34
Width: 2040
Flags: W
LayerCount: 2
Fore
SplineSet
774 729 m 2,0,-1
 774 66 l 1,1,-1
 983 66 l 1,2,-1
 983 0 l 1,3,-1
 152 0 l 1,4,-1
 152 66 l 1,5,-1
 360 66 l 1,6,-1
 360 3154 l 1,7,-1
 152 3154 l 1,8,-1
 152 3224 l 1,9,10
 217 3224 217 3224 258 3215 c 1,11,12
 549 3228 549 3228 774 3281 c 1,13,-1
 774 1040 l 1,14,15
 864 1176 864 1176 999 1257 c 1,16,17
 1135 1335 1135 1335 1266 1335 c 0,18,19
 1466 1335 1466 1335 1577 1184 c 1,20,21
 1688 1028 1688 1028 1688 823 c 2,22,-1
 1688 66 l 1,23,-1
 1896 66 l 1,24,-1
 1896 0 l 1,25,-1
 1065 0 l 1,26,-1
 1065 66 l 1,27,-1
 1274 66 l 1,28,-1
 1274 774 l 1,29,-1
 1274 864 l 2,30,31
 1274 987 1274 987 1229 1077 c 128,-1,32
 1184 1167 1184 1167 1081 1167 c 0,33,34
 971 1167 971 1167 872 1020 c 1,35,36
 774 868 774 868 774 729 c 2,0,-1
EndSplineSet
Validated: 1
EndChar

StartChar: j
Encoding: 106 106 35
Width: 1040
Flags: W
LayerCount: 2
Fore
SplineSet
848 1311 m 1,0,-1
 848 -66 l 2,1,2
 848 -225 848 -225 782 -369 c 1,3,4
 717 -516 717 -516 606 -602 c 1,5,6
 492 -692 492 -692 336 -696 c 1,7,8
 184 -696 184 -696 49 -561 c 1,9,-1
 49 -745 l 1,10,-1
 -16 -745 l 1,11,-1
 -16 -74 l 1,12,-1
 49 -74 l 1,13,-1
 49 -143 l 2,14,15
 49 -336 49 -336 119 -479 c 1,16,17
 184 -623 184 -623 303 -623 c 0,18,19
 307 -623 307 -623 311 -623 c 0,20,21
 393 -623 393 -623 393 -438 c 2,22,-1
 393 1167 l 1,23,-1
 201 1167 l 1,24,-1
 201 1233 l 1,25,26
 258 1233 258 1233 279 1225 c 1,27,28
 582 1237 582 1237 848 1311 c 1,0,-1
598 1274 m 1,29,-1
 496 1880 l 1,30,-1
 705 1880 l 1,31,-1
 598 1274 l 1,29,-1
EndSplineSet
Validated: 1
EndChar

StartChar: k
Encoding: 107 107 36
Width: 2023
Flags: W
LayerCount: 2
Fore
SplineSet
754 561 m 1,0,-1
 1110 872 l 1,1,2
 1249 995 1249 995 1249 1057 c 0,3,4
 1249 1126 1249 1126 1090 1126 c 2,5,-1
 1032 1126 l 1,6,-1
 1032 1192 l 1,7,-1
 1798 1192 l 1,8,-1
 1798 1126 l 1,9,-1
 1769 1126 l 2,10,11
 1466 1126 1466 1126 1225 897 c 1,12,-1
 1118 791 l 1,13,-1
 1761 66 l 1,14,-1
 1864 66 l 1,15,-1
 1864 0 l 1,16,-1
 1233 0 l 1,17,-1
 754 561 l 1,0,-1
762 3281 m 1,18,-1
 762 66 l 1,19,-1
 967 66 l 1,20,-1
 967 0 l 1,21,-1
 135 0 l 1,22,-1
 135 66 l 1,23,-1
 344 66 l 1,24,-1
 344 3154 l 1,25,-1
 135 3154 l 1,26,-1
 135 3224 l 1,27,28
 201 3224 201 3224 242 3215 c 1,29,30
 537 3228 537 3228 762 3281 c 1,18,-1
EndSplineSet
Validated: 5
EndChar

StartChar: l
Encoding: 108 108 37
Width: 1249
Flags: W
LayerCount: 2
Fore
SplineSet
745 3281 m 1,0,-1
 745 66 l 1,1,-1
 958 66 l 1,2,-1
 958 0 l 1,3,-1
 127 0 l 1,4,-1
 127 66 l 1,5,-1
 328 66 l 1,6,-1
 328 3154 l 1,7,-1
 127 3154 l 1,8,-1
 127 3224 l 1,9,10
 193 3224 193 3224 225 3215 c 1,11,12
 520 3228 520 3228 745 3281 c 1,0,-1
EndSplineSet
Validated: 1
EndChar

StartChar: semicolon
Encoding: 59 59 38
Width: 713
Flags: W
LayerCount: 2
Fore
SplineSet
553 1118 m 0,0,1
 553 1110 553 1110 553 1102 c 0,2,3
 553 1020 553 1020 492 963 c 0,4,5
 422 897 422 897 336 897 c 1,6,7
 250 905 250 905 193 971 c 1,8,9
 135 1032 135 1032 135 1110 c 0,10,11
 135 1192 135 1192 201 1257 c 1,12,13
 262 1319 262 1319 344 1319 c 0,14,15
 422 1319 422 1319 487 1257 c 1,16,17
 553 1196 553 1196 553 1118 c 0,0,1
553 209 m 0,18,19
 553 197 553 197 553 184 c 0,20,21
 553 70 553 70 512 -16 c 1,22,23
 467 -115 467 -115 369 -258 c 1,24,-1
 369 0 l 1,25,26
 360 0 360 0 352 0 c 0,27,28
 270 0 270 0 209 57 c 1,29,30
 135 123 135 123 135 209 c 256,31,32
 135 295 135 295 201 360 c 1,33,34
 258 418 258 418 328 418 c 0,35,36
 336 418 336 418 344 418 c 0,37,38
 438 418 438 418 496 360 c 1,39,40
 553 299 553 299 553 209 c 0,18,19
EndSplineSet
Validated: 1
EndChar

StartChar: quotesingle
Encoding: 39 39 39
Width: 721
Flags: W
LayerCount: 2
Fore
SplineSet
569 3191 m 0,0,1
 569 3178 569 3178 569 3166 c 0,2,3
 569 3006 569 3006 385 2720 c 1,4,-1
 385 2986 l 1,5,6
 381 2986 381 2986 377 2986 c 0,7,8
 291 2986 291 2986 225 3047 c 1,9,10
 152 3109 152 3109 152 3191 c 256,11,12
 152 3273 152 3273 217 3338 c 0,13,14
 279 3400 279 3400 352 3400 c 0,15,16
 356 3400 356 3400 360 3400 c 0,17,18
 455 3396 455 3396 512 3338 c 0,19,20
 569 3281 569 3281 569 3191 c 0,0,1
EndSplineSet
Validated: 1
EndChar

StartChar: z
Encoding: 122 122 40
Width: 1520
Flags: W
LayerCount: 2
Fore
SplineSet
831 1257 m 1,0,-1
 664 1257 l 2,1,2
 446 1257 446 1257 365 1184 c 0,3,4
 279 1106 279 1106 279 889 c 2,5,-1
 279 815 l 1,6,-1
 217 815 l 1,7,-1
 217 1401 l 1,8,-1
 279 1401 l 1,9,-1
 279 1319 l 1,10,-1
 1376 1319 l 1,11,-1
 1376 1257 l 1,12,-1
 680 66 l 1,13,-1
 770 66 l 2,14,15
 913 66 913 66 1024 78 c 0,16,17
 1130 90 1130 90 1212 152 c 1,18,19
 1294 209 1294 209 1294 352 c 2,20,-1
 1294 455 l 1,21,-1
 1360 455 l 1,22,-1
 1360 -82 l 1,23,-1
 1294 -82 l 1,24,-1
 1294 0 l 1,25,-1
 135 0 l 1,26,-1
 135 66 l 1,27,-1
 831 1257 l 1,0,-1
EndSplineSet
Validated: 1
EndChar

StartChar: x
Encoding: 120 120 41
Width: 1905
Flags: W
LayerCount: 2
Fore
SplineSet
1233 770 m 1,0,-1
 1622 66 l 1,1,-1
 1769 66 l 1,2,-1
 1769 0 l 1,3,-1
 967 0 l 1,4,-1
 967 66 l 1,5,-1
 1073 66 l 1,6,-1
 774 606 l 1,7,-1
 680 487 l 1,8,9
 516 254 516 254 504 160 c 1,10,11
 528 98 528 98 545 82 c 1,12,13
 557 66 557 66 606 66 c 2,14,-1
 639 66 l 1,15,-1
 639 0 l 1,16,-1
 135 0 l 1,17,-1
 135 66 l 1,18,-1
 168 66 l 2,19,20
 266 66 266 66 348 139 c 0,21,22
 426 209 426 209 504 328 c 0,23,24
 578 442 578 442 623 512 c 1,25,-1
 737 664 l 1,26,-1
 393 1257 l 1,27,-1
 287 1257 l 1,28,-1
 287 1319 l 1,29,-1
 1098 1319 l 1,30,-1
 1098 1257 l 1,31,-1
 950 1257 l 1,32,-1
 1192 831 l 1,33,-1
 1257 913 l 1,34,35
 1384 1061 1384 1061 1384 1151 c 0,36,37
 1384 1257 1384 1257 1294 1257 c 2,38,-1
 1257 1257 l 1,39,-1
 1257 1319 l 1,40,-1
 1761 1319 l 1,41,-1
 1761 1257 l 1,42,-1
 1729 1257 l 2,43,44
 1647 1257 1647 1257 1573 1196 c 128,-1,45
 1499 1135 1499 1135 1417 1016 c 1,46,47
 1331 897 1331 897 1319 881 c 2,48,-1
 1233 770 l 1,0,-1
EndSplineSet
Validated: 1
EndChar

StartChar: c
Encoding: 99 99 42
Width: 1569
Flags: W
LayerCount: 2
Fore
SplineSet
958 49 m 1,0,1
 1262 49 1262 49 1425 287 c 1,2,-1
 1425 193 l 1,3,4
 1335 102 1335 102 1233 45 c 1,5,6
 1126 -12 1126 -12 922 -16 c 0,7,8
 901 -16 901 -16 881 -16 c 0,9,10
 569 -16 569 -16 369 152 c 1,11,12
 152 332 152 332 143 606 c 1,13,14
 143 897 143 897 356 1110 c 0,15,16
 565 1319 565 1319 856 1319 c 0,17,18
 1036 1319 1036 1319 1192 1225 c 1,19,-1
 1192 1409 l 1,20,-1
 1274 1409 l 1,21,-1
 1274 770 l 1,22,-1
 1192 770 l 1,23,-1
 1192 848 l 2,24,25
 1192 1004 1192 1004 1110 1122 c 0,26,27
 1032 1233 1032 1233 864 1233 c 0,28,29
 860 1233 860 1233 856 1233 c 0,30,31
 717 1229 717 1229 655 1032 c 1,32,33
 594 831 594 831 594 614 c 1,34,35
 602 410 602 410 692 233 c 1,36,37
 782 53 782 53 958 49 c 1,0,1
EndSplineSet
Validated: 1
EndChar

StartChar: v
Encoding: 118 118 43
Width: 1847
Flags: W
LayerCount: 2
Fore
SplineSet
791 1257 m 1,0,-1
 1118 512 l 1,1,-1
 1303 881 l 1,2,3
 1401 1085 1401 1085 1401 1151 c 2,4,-1
 1401 1192 l 1,5,6
 1368 1266 1368 1266 1233 1266 c 2,7,-1
 1200 1266 l 1,8,-1
 1200 1319 l 1,9,-1
 1704 1319 l 1,10,-1
 1704 1266 l 1,11,-1
 1671 1266 l 2,12,13
 1602 1266 1602 1266 1548 1188 c 0,14,15
 1495 1110 1495 1110 1401 922 c 1,16,-1
 942 -16 l 1,17,-1
 872 -16 l 1,18,-1
 233 1257 l 1,19,-1
 127 1257 l 1,20,-1
 127 1319 l 1,21,-1
 930 1319 l 1,22,-1
 930 1257 l 1,23,-1
 791 1257 l 1,0,-1
EndSplineSet
Validated: 1
EndChar

StartChar: b
Encoding: 98 98 44
Width: 1954
Flags: W
LayerCount: 2
Fore
SplineSet
762 823 m 2,0,-1
 762 463 l 2,1,2
 762 328 762 328 877 176 c 0,3,4
 979 41 979 41 1085 41 c 0,5,6
 1098 41 1098 41 1110 41 c 1,7,8
 1249 61 1249 61 1298 238 c 1,9,10
 1343 410 1343 410 1352 655 c 0,11,12
 1352 672 1352 672 1352 688 c 0,13,14
 1352 856 1352 856 1286 1024 c 1,15,16
 1212 1208 1212 1208 1073 1208 c 256,17,18
 934 1208 934 1208 848 1090 c 1,19,20
 762 967 762 967 762 823 c 2,0,-1
426 176 m 1,21,-1
 352 176 l 1,22,-1
 352 3138 l 1,23,-1
 135 3138 l 1,24,-1
 135 3199 l 1,25,26
 193 3199 193 3199 217 3191 c 1,27,28
 479 3203 479 3203 762 3265 c 1,29,-1
 762 1143 l 1,30,31
 885 1237 885 1237 979 1282 c 1,32,33
 1065 1319 1065 1319 1200 1319 c 0,34,35
 1212 1319 1212 1319 1225 1319 c 0,36,37
 1389 1315 1389 1315 1532 1216.5 c 128,-1,38
 1675 1118 1675 1118 1753 967 c 1,39,40
 1815 831 1815 831 1815 688 c 0,41,42
 1815 664 1815 664 1815 639 c 1,43,44
 1802 422 1802 422 1675 270 c 1,45,46
 1548 115 1548 115 1372 45 c 0,47,48
 1217 -16 1217 -16 1090 -16 c 0,49,50
 1069 -16 1069 -16 1049 -16 c 1,51,52
 971 -8 971 -8 803 86 c 1,53,54
 631 176 631 176 520 176 c 2,55,-1
 426 176 l 1,21,-1
EndSplineSet
Validated: 1
EndChar

StartChar: n
Encoding: 110 110 45
Width: 2015
Flags: W
LayerCount: 2
Fore
SplineSet
1638 688 m 2,0,-1
 1638 66 l 1,1,-1
 1864 66 l 1,2,-1
 1864 0 l 1,3,-1
 1024 0 l 1,4,-1
 1024 66 l 1,5,-1
 1225 66 l 1,6,-1
 1225 762 l 1,7,-1
 1225 815 l 2,8,9
 1225 983 1225 983 1204 1057 c 1,10,11
 1180 1130 1180 1130 1090 1143 c 1,12,13
 1073 1147 1073 1147 1057 1147 c 0,14,15
 950 1147 950 1147 868 995 c 1,16,17
 770 823 770 823 770 639 c 2,18,-1
 770 66 l 1,19,-1
 991 66 l 1,20,-1
 991 0 l 1,21,-1
 152 0 l 1,22,-1
 152 66 l 1,23,-1
 352 66 l 1,24,-1
 352 1192 l 1,25,-1
 152 1192 l 1,26,-1
 152 1266 l 1,27,28
 201 1266 201 1266 233 1257 c 1,29,30
 512 1270 512 1270 770 1327 c 1,31,-1
 770 991 l 1,32,-1
 799 1049 l 1,33,34
 856 1130 856 1130 934 1191.5 c 128,-1,35
 1012 1253 1012 1253 1102 1286 c 1,36,37
 1188 1319 1188 1319 1266 1319 c 0,38,39
 1638 1319 1638 1319 1638 688 c 2,0,-1
EndSplineSet
Validated: 1
EndChar

StartChar: m
Encoding: 109 109 46
Width: 2879
Flags: W
LayerCount: 2
Fore
SplineSet
1610 999 m 1,0,-1
 1655 1073 l 1,1,2
 1843 1319 1843 1319 2105 1319 c 0,3,4
 2322 1319 2322 1319 2424.5 1179.5 c 128,-1,5
 2527 1040 2527 1040 2527 815 c 2,6,-1
 2527 66 l 1,7,-1
 2744 66 l 1,8,-1
 2744 0 l 1,9,-1
 1905 0 l 1,10,-1
 1905 66 l 1,11,-1
 2114 66 l 1,12,-1
 2114 770 l 2,13,14
 2114 946 2114 946 2089 1049 c 1,15,16
 2064 1147 2064 1147 1962 1159 c 1,17,18
 1950 1159 1950 1159 1937 1159 c 0,19,20
 1815 1159 1815 1159 1733 1024 c 1,21,22
 1638 877 1638 877 1638 696 c 2,23,-1
 1638 66 l 1,24,-1
 1855 66 l 1,25,-1
 1855 0 l 1,26,-1
 1016 0 l 1,27,-1
 1016 66 l 1,28,-1
 1217 66 l 1,29,-1
 1217 770 l 1,30,-1
 1217 881 l 2,31,32
 1217 1122 1217 1122 1081 1151 c 0,33,34
 1065 1155 1065 1155 1049 1155 c 0,35,36
 938 1155 938 1155 856 1008 c 0,37,38
 762 840 762 840 762 647 c 2,39,-1
 762 66 l 1,40,-1
 975 66 l 1,41,-1
 975 0 l 1,42,-1
 135 0 l 1,43,-1
 135 66 l 1,44,-1
 344 66 l 1,45,-1
 344 1200 l 1,46,-1
 135 1200 l 1,47,-1
 135 1274 l 1,48,49
 201 1274 201 1274 242 1266 c 1,50,51
 557 1278 557 1278 762 1327 c 1,52,-1
 762 999 l 1,53,-1
 791 1057 l 1,54,55
 971 1319 971 1319 1241 1319 c 0,56,57
 1380 1319 1380 1319 1482.5 1229 c 128,-1,58
 1585 1139 1585 1139 1610 999 c 1,0,-1
EndSplineSet
Validated: 1
EndChar

StartChar: comma
Encoding: 44 44 47
Width: 705
Flags: W
LayerCount: 2
Fore
SplineSet
561 209 m 0,0,1
 561 197 561 197 561 184 c 0,2,3
 561 25 561 25 377 -258 c 1,4,-1
 377 0 l 1,5,6
 369 0 369 0 360 0 c 0,7,8
 279 0 279 0 217 57 c 1,9,10
 143 123 143 123 143 209 c 256,11,12
 143 295 143 295 209 360 c 1,13,14
 266 418 266 418 336 418 c 0,15,16
 344 418 344 418 352 418 c 0,17,18
 446 418 446 418 504 360 c 1,19,20
 561 299 561 299 561 209 c 0,0,1
EndSplineSet
Validated: 1
EndChar

StartChar: period
Encoding: 46 46 48
Width: 705
Flags: W
LayerCount: 2
Fore
SplineSet
360 418 m 0,0,1
 446 418 446 418 508 356 c 0,2,3
 569 295 569 295 569 209 c 256,4,5
 569 123 569 123 504 61 c 1,6,7
 438 0 438 0 360 0 c 0,8,9
 274 0 274 0 213 61 c 0,10,11
 152 123 152 123 152 209 c 256,12,13
 152 295 152 295 213 356 c 1,14,15
 270 418 270 418 360 418 c 0,0,1
EndSplineSet
Validated: 1
EndChar

StartChar: slash
Encoding: 47 47 49
Width: 2134
Flags: W
LayerCount: 2
Fore
SplineSet
1954 3281 m 1,0,-1
 2023 3281 l 1,1,-1
 201 0 l 1,2,-1
 135 0 l 1,3,-1
 1954 3281 l 1,0,-1
EndSplineSet
Validated: 1
EndChar

StartChar: asciitilde
Encoding: 126 126 51
Width: 1393
Flags: W
LayerCount: 2
Fore
SplineSet
258 2904 m 1,0,-1
 135 2945 l 1,1,2
 274 3232 274 3232 512 3232 c 0,3,4
 528 3232 528 3232 545 3232 c 1,5,6
 639 3219 639 3219 778 3113 c 1,7,8
 893 3027 893 3027 975 3027 c 0,9,10
 995 3027 995 3027 1016 3031 c 0,11,12
 1094 3047 1094 3047 1135 3158 c 1,13,-1
 1257 3121 l 1,14,15
 1200 2974 1200 2974 1102 2884 c 0,16,17
 1012 2802 1012 2802 897 2802 c 0,18,19
 881 2802 881 2802 864 2802 c 1,20,21
 827 2806 827 2806 643 2925 c 1,22,23
 487 3019 487 3019 401 3019 c 0,24,25
 385 3019 385 3019 369 3015 c 0,26,27
 315 3002 315 3002 258 2904 c 1,0,-1
EndSplineSet
Validated: 1
EndChar

StartChar: exclam
Encoding: 33 33 52
Width: 967
Flags: W
LayerCount: 2
Fore
SplineSet
438 913 m 2,0,1
 438 1290 438 1290 393 1581 c 0,2,3
 348 1868 348 1868 266 2269 c 0,4,5
 184 2666 184 2666 184 2785 c 0,6,7
 184 3006 184 3006 266 3138 c 1,8,9
 348 3265 348 3265 496 3265 c 0,10,11
 651 3265 651 3265 729 3133 c 1,12,13
 807 2998 807 2998 807 2785 c 0,14,15
 807 2634 807 2634 725 2290 c 128,-1,16
 643 1946 643 1946 586 1630 c 1,17,18
 528 1315 528 1315 528 905 c 2,19,-1
 528 639 l 1,20,-1
 438 639 l 1,21,-1
 438 913 l 2,0,1
496 410 m 0,22,23
 578 410 578 410 643 348 c 1,24,25
 705 283 705 283 705 193 c 0,26,27
 705 115 705 115 639 49 c 0,28,29
 573 -16 573 -16 496 -16 c 0,30,31
 410 -16 410 -16 348 49 c 1,32,33
 287 115 287 115 287 193 c 0,34,35
 287 283 287 283 348 348 c 0,36,37
 406 410 406 410 496 410 c 0,22,23
EndSplineSet
Validated: 1
EndChar

StartChar: at
Encoding: 64 64 53
Width: 2130
Flags: W
LayerCount: 2
Fore
SplineSet
713 2224 m 1,0,-1
 713 2097 l 1,1,2
 856 2200 856 2200 1090 2200 c 0,3,4
 1249 2200 1249 2200 1401 2126 c 1,5,6
 1552 2048 1552 2048 1552 1888 c 2,7,-1
 1552 1360 l 2,8,9
 1552 1229 1552 1229 1610 1217 c 1,10,11
 1651 1229 1651 1229 1679 1266 c 1,12,-1
 1720 1311 l 1,13,-1
 1778 1274 l 1,14,-1
 1737 1225 l 1,15,16
 1618 1106 1618 1106 1495 1106 c 0,17,18
 1454 1106 1454 1106 1401 1118 c 1,19,20
 1343 1126 1343 1126 1315 1151 c 1,21,22
 1286 1171 1286 1171 1225 1241 c 1,23,24
 1122 1118 1122 1118 930 1098 c 1,25,26
 766 1106 766 1106 631 1216.5 c 128,-1,27
 496 1327 496 1327 496 1495 c 1,28,29
 500 1651 500 1651 627 1737 c 128,-1,30
 754 1823 754 1823 922 1831 c 1,31,32
 1069 1831 1069 1831 1208 1761 c 1,33,-1
 1208 1962 l 2,34,35
 1208 2032 1208 2032 1180 2085 c 1,36,37
 1147 2138 1147 2138 1090 2142 c 1,38,39
 1069 2142 1069 2142 1049 2142 c 0,40,41
 934 2146 934 2146 836 2093 c 1,42,43
 713 2028 713 2028 713 1913 c 2,44,-1
 713 1872 l 1,45,-1
 664 1872 l 1,46,-1
 664 2224 l 1,47,-1
 713 2224 l 1,0,-1
1208 1360 m 2,48,-1
 1208 1561 l 2,49,50
 1208 1659 1208 1659 1155 1724 c 1,51,52
 1098 1786 1098 1786 991 1786 c 0,53,54
 844 1786 844 1786 831 1503 c 1,55,56
 831 1360 831 1360 885 1266 c 1,57,58
 934 1167 934 1167 1032 1167 c 0,59,60
 1102 1167 1102 1167 1155 1233 c 1,61,62
 1208 1294 1208 1294 1208 1360 c 2,48,-1
1126 848 m 0,63,64
 1454 848 1454 848 1688 1081 c 1,65,66
 1921 1311 1921 1311 1929 1638 c 1,67,68
 1929 1860 1929 1860 1819 2044 c 1,69,70
 1708 2224 1708 2224 1524 2335 c 1,71,72
 1339 2441 1339 2441 1126 2441 c 256,73,74
 913 2441 913 2441 733 2331 c 1,75,76
 549 2220 549 2220 446 2032 c 1,77,78
 344 1851 344 1851 344 1655 c 0,79,80
 344 1647 344 1647 344 1638 c 0,81,82
 344 1421 344 1421 451 1241 c 1,83,84
 553 1061 553 1061 733 954 c 0,85,86
 913 848 913 848 1126 848 c 0,63,64
1126 721 m 0,87,88
 877 721 877 721 668 848 c 1,89,90
 459 971 459 971 336 1184 c 1,91,92
 209 1393 209 1393 209 1638 c 0,93,94
 209 2015 209 2015 483 2294 c 1,95,96
 754 2568 754 2568 1126 2568 c 0,97,98
 1372 2568 1372 2568 1585 2441 c 128,-1,99
 1798 2314 1798 2314 1925 2105 c 1,100,101
 2048 1892 2048 1892 2048 1638 c 0,102,103
 2048 1262 2048 1262 1778 991 c 1,104,105
 1507 721 1507 721 1126 721 c 0,87,88
EndSplineSet
Validated: 33
EndChar

StartChar: numbersign
Encoding: 35 35 54
Width: 2478
Flags: W
LayerCount: 2
Fore
SplineSet
1376 2232 m 1,0,-1
 754 2232 l 1,1,-1
 418 1638 l 1,2,-1
 352 1638 l 1,3,-1
 688 2232 l 1,4,-1
 127 2232 l 1,5,-1
 168 2290 l 1,6,-1
 721 2290 l 1,7,-1
 958 2720 l 1,8,-1
 418 2720 l 1,9,-1
 463 2785 l 1,10,-1
 991 2785 l 1,11,-1
 1274 3281 l 1,12,-1
 1343 3281 l 1,13,-1
 1065 2785 l 1,14,-1
 1679 2785 l 1,15,-1
 1962 3281 l 1,16,-1
 2032 3281 l 1,17,-1
 1753 2785 l 1,18,-1
 2327 2785 l 1,19,-1
 2290 2720 l 1,20,-1
 1720 2720 l 1,21,-1
 1470 2290 l 1,22,-1
 2032 2290 l 1,23,-1
 1991 2232 l 1,24,-1
 1442 2232 l 1,25,-1
 1110 1638 l 1,26,-1
 1040 1638 l 1,27,-1
 1376 2232 l 1,0,-1
1409 2290 m 1,28,-1
 1647 2720 l 1,29,-1
 1024 2720 l 1,30,-1
 782 2290 l 1,31,-1
 1409 2290 l 1,28,-1
EndSplineSet
Validated: 1
EndChar

StartChar: dollar
Encoding: 36 36 55
Width: 1679
Flags: W
LayerCount: 2
Fore
SplineSet
94 848 m 1,0,1
 233 594 233 594 586 537 c 1,2,-1
 586 1520 l 1,3,-1
 496 1569 l 1,4,5
 254 1708 254 1708 123 1888 c 1,6,7
 0 2048 0 2048 0 2265 c 0,8,9
 0 2286 0 2286 0 2306 c 1,10,11
 20 2564 20 2564 172 2736 c 128,-1,12
 324 2908 324 2908 586 2961 c 1,13,-1
 586 3342 l 1,14,-1
 647 3342 l 1,15,-1
 647 2970 l 1,16,17
 672 2978 672 2978 729 2978 c 1,18,-1
 729 3342 l 1,19,-1
 799 3342 l 1,20,-1
 799 2970 l 1,21,22
 889 2961 889 2961 999 2937 c 0,23,24
 1110 2912 1110 2912 1266 2879 c 1,25,-1
 1294 2879 l 1,26,-1
 1294 2601 l 1,27,-1
 1225 2601 l 1,28,-1
 1192 2646 l 1,29,30
 1081 2826 1081 2826 799 2871 c 1,31,-1
 799 1982 l 1,32,-1
 881 1946 l 1,33,34
 1077 1827 1077 1827 1245 1642 c 1,35,36
 1409 1458 1409 1458 1409 1208 c 0,37,38
 1409 995 1409 995 1303 836 c 1,39,40
 1192 676 1192 676 1061 594 c 1,41,42
 926 508 926 508 799 479 c 1,43,-1
 799 66 l 1,44,-1
 729 66 l 1,45,-1
 737 463 l 1,46,-1
 647 463 l 1,47,-1
 647 66 l 1,48,-1
 586 66 l 1,49,-1
 586 471 l 1,50,51
 324 492 324 492 8 606 c 1,52,-1
 8 889 l 1,53,-1
 74 889 l 1,54,-1
 94 848 l 1,0,1
647 1470 m 1,55,-1
 647 537 l 1,56,57
 696 537 696 537 729 545 c 1,58,-1
 729 1409 l 1,59,-1
 647 1470 l 1,55,-1
1090 889 m 0,60,61
 1090 1090 1090 1090 872 1294 c 1,62,-1
 799 1360 l 1,63,-1
 799 561 l 1,64,65
 922 586 922 586 1008 684 c 0,66,67
 1090 778 1090 778 1090 881 c 0,68,69
 1090 885 1090 885 1090 889 c 0,60,61
729 2023 m 1,70,-1
 729 2879 l 1,71,-1
 647 2871 l 1,72,-1
 647 2073 l 1,73,-1
 729 2023 l 1,70,-1
528 2167 m 1,74,-1
 586 2130 l 1,75,-1
 586 2863 l 1,76,77
 479 2843 479 2843 389 2757 c 1,78,79
 295 2671 295 2671 295 2568 c 1,80,81
 307 2343 307 2343 528 2167 c 1,74,-1
EndSplineSet
Validated: 1
EndChar

StartChar: percent
Encoding: 37 37 56
Width: 2290
Flags: W
LayerCount: 2
Fore
SplineSet
2007 3281 m 1,0,-1
 2081 3281 l 1,1,-1
 258 0 l 1,2,-1
 184 0 l 1,3,-1
 2007 3281 l 1,0,-1
1454 1135 m 1,4,5
 1339 1118 1339 1118 1278 954 c 1,6,7
 1217 786 1217 786 1217 606 c 0,8,9
 1217 410 1217 410 1274 233 c 0,10,11
 1331 57 1331 57 1454 57 c 0,12,13
 1720 57 1720 57 1720 606 c 0,14,15
 1720 811 1720 811 1655 987 c 1,16,17
 1593 1139 1593 1139 1487 1139 c 0,18,19
 1470 1139 1470 1139 1454 1135 c 1,4,5
2150 594 m 0,20,21
 2150 336 2150 336 1941.5 168 c 128,-1,22
 1733 0 1733 0 1462 0 c 0,23,24
 1200 0 1200 0 999 168 c 0,25,26
 799 336 799 336 799 586 c 0,27,28
 799 741 799 741 893 885 c 0,29,30
 983 1024 983 1024 1135 1114 c 1,31,32
 1286 1200 1286 1200 1454 1200 c 0,33,34
 1737 1200 1737 1200 1946 1032 c 1,35,36
 2150 860 2150 860 2150 594 c 0,20,21
791 3224 m 0,37,38
 672 3195 672 3195 614 3035 c 1,39,40
 553 2871 553 2871 553 2687 c 0,41,42
 553 2499 553 2499 610 2318 c 1,43,44
 664 2134 664 2134 791 2134 c 0,45,46
 1065 2134 1065 2134 1065 2687 c 0,47,48
 1065 2904 1065 2904 991 3080 c 1,49,50
 930 3228 930 3228 823 3228 c 0,51,52
 807 3228 807 3228 791 3224 c 0,37,38
1495 2679 m 0,53,54
 1495 2417 1495 2417 1290 2253 c 1,55,56
 1081 2089 1081 2089 799 2089 c 0,57,58
 532 2089 532 2089 336 2253 c 1,59,60
 135 2413 135 2413 135 2662 c 0,61,62
 135 2826 135 2826 225 2965.5 c 128,-1,63
 315 3105 315 3105 471 3195 c 1,64,65
 627 3281 627 3281 791 3281 c 0,66,67
 967 3281 967 3281 1135 3203 c 1,68,69
 1298 3125 1298 3125 1397 2990 c 1,70,71
 1495 2851 1495 2851 1495 2679 c 0,53,54
EndSplineSet
Validated: 1
EndChar

StartChar: asciicircum
Encoding: 94 94 57
Width: 1434
Flags: W
LayerCount: 2
Fore
SplineSet
111 2839 m 1,0,-1
 705 3281 l 1,1,-1
 1303 2839 l 1,2,-1
 1110 2839 l 1,3,-1
 705 3015 l 1,4,-1
 336 2839 l 1,5,-1
 111 2839 l 1,0,-1
EndSplineSet
Validated: 1
EndChar

StartChar: ampersand
Encoding: 38 38 58
Width: 2896
Flags: W
LayerCount: 2
Fore
SplineSet
1671 250 m 1,0,1
 1192 639 1192 639 881 1343 c 1,2,-1
 823 1462 l 1,3,-1
 791 1409 l 1,4,5
 684 1217 684 1217 672 958 c 1,6,7
 700 741 700 741 770 589.5 c 128,-1,8
 840 438 840 438 991 319 c 1,9,10
 1155 197 1155 197 1417 184 c 1,11,12
 1577 201 1577 201 1671 250 c 1,0,1
1098 2023 m 1,13,14
 1561 2376 1561 2376 1561 2802 c 0,15,16
 1561 3154 1561 3154 1311 3154 c 0,17,18
 1307 3154 1307 3154 1303 3154 c 0,19,20
 983 3142 983 3142 967 2646 c 1,21,22
 979 2359 979 2359 1098 2023 c 1,13,14
1999 537 m 1,23,24
 2183 360 2183 360 2355 291 c 0,25,26
 2499 233 2499 233 2687 233 c 0,27,28
 2720 233 2720 233 2753 233 c 1,29,30
 2454 12 2454 12 2191 0 c 1,31,32
 1966 12 1966 12 1720 209 c 1,33,-1
 1655 168 l 1,34,35
 1401 12 1401 12 1024 0 c 1,36,37
 643 8 643 8 385 221 c 1,38,39
 135 422 135 422 135 799 c 0,40,41
 135 815 135 815 135 831 c 0,42,43
 147 1286 147 1286 647 1704 c 1,44,-1
 705 1753 l 1,45,-1
 680 1831 l 1,46,47
 618 2068 618 2068 606 2327 c 1,48,49
 614 2740 614 2740 791 3006 c 1,50,51
 963 3273 963 3273 1282 3273 c 0,52,53
 1483 3273 1483 3273 1577 3133 c 1,54,55
 1671 2990 1671 2990 1671 2777 c 0,56,57
 1671 2519 1671 2519 1544 2310 c 1,58,59
 1417 2097 1417 2097 1176 1831 c 1,60,61
 1266 1626 1266 1626 1401 1388.5 c 128,-1,62
 1536 1151 1536 1151 1675 950 c 1,63,64
 1815 745 1815 745 1962 586 c 1,65,66
 2052 705 2052 705 2064 864 c 1,67,68
 2068 893 2068 893 2068 922 c 0,69,70
 2068 1053 2068 1053 1987 1163 c 1,71,72
 1888 1294 1888 1294 1720 1294 c 2,73,-1
 1679 1294 l 1,74,-1
 1679 1376 l 1,75,-1
 2535 1376 l 1,76,-1
 2535 1294 l 1,77,-1
 2503 1294 l 2,78,79
 2339 1294 2339 1294 2265 1200 c 1,80,81
 2187 1106 2187 1106 2150 938 c 1,82,83
 2097 688 2097 688 1999 537 c 1,23,24
EndSplineSet
Validated: 1
EndChar

StartChar: asterisk
Encoding: 42 42 59
Width: 1569
Flags: W
LayerCount: 2
Fore
SplineSet
913 3281 m 1,0,-1
 840 2744 l 1,1,-1
 1159 3158 l 1,2,-1
 1319 3006 l 1,3,-1
 897 2695 l 1,4,-1
 1425 2761 l 1,5,-1
 1425 2585 l 1,6,-1
 897 2634 l 1,7,-1
 1294 2298 l 1,8,-1
 1143 2150 l 1,9,-1
 840 2568 l 1,10,-1
 889 2048 l 1,11,-1
 688 2048 l 1,12,-1
 770 2568 l 1,13,-1
 438 2150 l 1,14,-1
 319 2290 l 1,15,-1
 729 2634 l 1,16,-1
 176 2544 l 1,17,-1
 176 2761 l 1,18,-1
 729 2695 l 1,19,-1
 295 3039 l 1,20,-1
 438 3158 l 1,21,-1
 782 2744 l 1,22,-1
 688 3281 l 1,23,-1
 913 3281 l 1,0,-1
EndSplineSet
Validated: 1
EndChar

StartChar: parenleft
Encoding: 40 40 60
Width: 1479
Flags: W
LayerCount: 2
Fore
SplineSet
1327 41 m 1,0,1
 1307 20 1307 20 1225 8 c 1,2,3
 1032 16 1032 16 786 172 c 1,4,5
 537 324 537 324 348 696 c 1,6,7
 156 1065 156 1065 152 1638 c 0,8,9
 152 1651 152 1651 152 1663 c 0,10,11
 152 2253 152 2253 332 2613 c 1,12,13
 512 2982 512 2982 758 3129 c 1,14,15
 1004 3273 1004 3273 1192 3273 c 0,16,17
 1303 3273 1303 3273 1303 3240 c 0,18,19
 1303 3236 1303 3236 1200 3183 c 0,20,21
 1094 3129 1094 3129 983 2990 c 128,-1,22
 872 2851 872 2851 791 2527 c 1,23,24
 705 2200 705 2200 705 1647 c 1,25,26
 709 1147 709 1147 803 827 c 0,27,28
 897 508 897 508 1012 360 c 1,29,30
 1122 209 1122 209 1229 131 c 1,31,32
 1327 57 1327 57 1327 41 c 1,33,34
 1327 41 1327 41 1327 41 c 1,0,1
EndSplineSet
Validated: 5
EndChar

StartChar: parenright
Encoding: 41 41 61
Width: 1450
Flags: W
LayerCount: 2
Fore
SplineSet
745 1647 m 0,0,1
 745 1671 745 1671 745 1696 c 0,2,3
 745 2212 745 2212 664 2531 c 1,4,5
 578 2863 578 2863 471 2998 c 1,6,7
 365 3129 365 3129 254 3182.5 c 128,-1,8
 143 3236 143 3236 143 3240 c 0,9,10
 143 3273 143 3273 242 3273 c 0,11,12
 434 3273 434 3273 680 3125 c 1,13,14
 926 2974 926 2974 1114 2605 c 1,15,16
 1294 2245 1294 2245 1294 1663 c 0,17,18
 1294 1651 1294 1651 1294 1638 c 0,19,20
 1290 1053 1290 1053 1098 696 c 1,21,22
 905 340 905 340 651 184 c 1,23,24
 397 25 397 25 217 16 c 1,25,26
 139 29 139 29 127 41 c 1,27,28
 127 41 127 41 127 41 c 1,29,30
 127 57 127 57 229 127 c 1,31,32
 332 201 332 201 446 352 c 0,33,34
 561 504 561 504 655 827 c 1,35,36
 745 1151 745 1151 745 1647 c 0,0,1
EndSplineSet
Validated: 5
EndChar

StartChar: underscore
Encoding: 95 95 62
Width: 1946
Flags: W
LayerCount: 2
Fore
SplineSet
2048 -295 m 1,0,-1
 0 -295 l 1,1,-1
 0 -168 l 1,2,-1
 2048 -168 l 1,3,-1
 2048 -295 l 1,0,-1
EndSplineSet
Validated: 1
EndChar

StartChar: plus
Encoding: 43 43 63
Width: 1638
Flags: W
LayerCount: 2
Fore
SplineSet
950 520 m 1,0,-1
 950 176 l 1,1,-1
 696 176 l 1,2,-1
 696 520 l 1,3,-1
 152 520 l 1,4,-1
 152 729 l 1,5,-1
 696 729 l 1,6,-1
 696 1073 l 1,7,-1
 950 1073 l 1,8,-1
 950 729 l 1,9,-1
 1511 729 l 1,10,-1
 1511 520 l 1,11,-1
 950 520 l 1,0,-1
EndSplineSet
Validated: 1
EndChar

StartChar: Q
Encoding: 81 81 64
Width: 2871
Flags: W
LayerCount: 2
Fore
SplineSet
1569 119 m 1,0,1
 1417 319 1417 319 1241 319 c 0,2,3
 1188 319 1188 319 1098 287 c 1,4,-1
 1024 250 l 1,5,-1
 1090 328 l 1,6,7
 1204 471 1204 471 1454 471 c 0,8,9
 1679 471 1679 471 1855 360 c 1,10,11
 1872 344 1872 344 1880 344 c 1,12,13
 2007 483 2007 483 2048 733 c 0,14,15
 2089 979 2089 979 2089 1368 c 2,16,-1
 2089 1630 l 2,17,18
 2089 2265 2089 2265 1966 2720 c 1,19,20
 1839 3174 1839 3174 1417 3174 c 0,21,22
 1118 3174 1118 3174 975 2945 c 1,23,24
 827 2716 827 2716 791 2404 c 0,25,26
 754 2089 754 2089 754 1630 c 0,27,28
 754 1167 754 1167 790.5 847.5 c 128,-1,29
 827 528 827 528 975 299 c 1,30,31
 1106 90 1106 90 1360 90 c 0,32,33
 1389 90 1389 90 1417 94 c 1,34,35
 1511 94 1511 94 1569 119 c 1,0,1
1622 41 m 1,36,37
 1466 4 1466 4 1434 0 c 1,38,39
 1389 -4 1389 -4 1348 -4 c 0,40,41
 1110 -4 1110 -4 905 111 c 1,42,43
 664 242 664 242 492 487 c 1,44,45
 315 729 315 729 225 1036 c 128,-1,46
 135 1343 135 1343 135 1638 c 0,47,48
 135 2052 135 2052 295 2433 c 1,49,50
 455 2810 455 2810 745 3043 c 1,51,52
 1036 3273 1036 3273 1425 3273 c 0,53,54
 1810 3273 1810 3273 2101 3039 c 1,55,56
 2388 2806 2388 2806 2544 2433 c 1,57,58
 2699 2056 2699 2056 2720 1638 c 1,59,60
 2720 1593 2720 1593 2720 1548 c 0,61,62
 2720 713 2720 713 2048 193 c 1,63,64
 2118 115 2118 115 2298 -143 c 1,65,-1
 2486 -74 l 1,66,-1
 2519 -152 l 1,67,-1
 1798 -418 l 1,68,69
 1716 -123 1716 -123 1630 25 c 1,70,71
 1630 29 1630 29 1630 33 c 1,72,73
 1626 37 1626 37 1622 41 c 1,36,37
EndSplineSet
Validated: 1
EndChar

StartChar: W
Encoding: 87 87 65
Width: 3895
Flags: W
LayerCount: 2
Fore
SplineSet
1855 1470 m 1,0,-1
 1368 0 l 1,1,-1
 1294 0 l 1,2,-1
 410 3191 l 1,3,-1
 152 3191 l 1,4,-1
 152 3281 l 1,5,-1
 160 3281 l 1,6,-1
 2257 3281 l 1,7,-1
 2257 3191 l 1,8,-1
 1954 3191 l 1,9,-1
 2544 872 l 1,10,-1
 3138 2703 l 1,11,12
 3183 2863 3183 2863 3183 2961 c 0,13,14
 3183 3191 3183 3191 2953 3191 c 2,15,-1
 2912 3191 l 1,16,-1
 2912 3281 l 1,17,-1
 3768 3281 l 1,18,-1
 3768 3191 l 1,19,-1
 3736 3191 l 2,20,21
 3510 3191 3510 3191 3412 3068 c 0,22,23
 3310 2941 3310 2941 3232 2687 c 1,24,-1
 2335 0 l 1,25,-1
 2265 0 l 1,26,-1
 1855 1470 l 1,0,-1
1577 872 m 1,27,-1
 1815 1618 l 1,28,-1
 1376 3191 l 1,29,-1
 983 3191 l 1,30,-1
 1577 872 l 1,27,-1
EndSplineSet
Validated: 1
EndChar

StartChar: E
Encoding: 69 69 66
Width: 2273
Flags: W
LayerCount: 2
Fore
SplineSet
1778 1847 m 1,0,-1
 1778 791 l 1,1,-1
 1688 791 l 1,2,-1
 1688 991 l 2,3,4
 1688 1167 1688 1167 1589 1225 c 0,5,6
 1491 1282 1491 1282 1327 1282 c 2,7,-1
 1266 1282 l 1,8,-1
 1057 1282 l 1,9,-1
 1057 86 l 1,10,-1
 1311 86 l 2,11,12
 1376 86 1376 86 1417 82 c 1,13,14
 1700 90 1700 90 1872 176 c 1,15,16
 2040 258 2040 258 2040 528 c 2,17,-1
 2040 729 l 1,18,-1
 2130 729 l 1,19,-1
 2130 -86 l 1,20,-1
 2040 -86 l 1,21,-1
 2040 0 l 1,22,-1
 184 0 l 1,23,-1
 184 86 l 1,24,-1
 487 86 l 1,25,-1
 487 3191 l 1,26,-1
 184 3191 l 1,27,-1
 184 3281 l 1,28,-1
 2048 3281 l 1,29,-1
 2048 3359 l 1,30,-1
 2134 3359 l 1,31,-1
 2134 2343 l 1,32,-1
 2048 2343 l 1,33,-1
 2048 2671 l 2,34,35
 2048 2986 2048 2986 1835 3088 c 0,36,37
 1618 3191 1618 3191 1311 3191 c 2,38,-1
 1057 3191 l 1,39,-1
 1057 1360 l 1,40,-1
 1274 1360 l 2,41,42
 1479 1360 1479 1360 1589 1405 c 1,43,44
 1696 1450 1696 1450 1696 1655 c 2,45,-1
 1696 1847 l 1,46,-1
 1778 1847 l 1,0,-1
EndSplineSet
Validated: 1
EndChar

StartChar: R
Encoding: 82 82 67
Width: 2929
Flags: W
LayerCount: 2
Fore
SplineSet
1024 1352 m 1,0,-1
 1106 1352 l 2,1,2
 1753 1352 1753 1352 1753 2286 c 0,3,4
 1753 2314 1753 2314 1753 2343 c 0,5,6
 1729 3191 1729 3191 1126 3191 c 2,7,-1
 1024 3191 l 1,8,-1
 1024 1352 l 1,0,-1
1409 1266 m 1,9,-1
 1024 1266 l 1,10,-1
 1024 94 l 1,11,-1
 1327 94 l 1,12,-1
 1327 0 l 1,13,-1
 152 0 l 1,14,-1
 152 86 l 1,15,-1
 455 86 l 1,16,-1
 455 3191 l 1,17,-1
 152 3191 l 1,18,-1
 152 3281 l 1,19,-1
 1286 3281 l 2,20,21
 1569 3281 1569 3281 1815 3162 c 1,22,23
 2056 3039 2056 3039 2212 2826 c 1,24,25
 2363 2613 2363 2613 2384 2335 c 1,26,27
 2384 2294 2384 2294 2384 2253 c 0,28,29
 2384 1634 2384 1634 1974 1470 c 1,30,-1
 1778 1393 l 1,31,-1
 1864 1368 l 1,32,33
 2081 1323 2081 1323 2224 1217 c 1,34,35
 2392 1094 2392 1094 2392 664 c 1,36,37
 2404 377 2404 377 2417 303 c 1,38,39
 2425 225 2425 225 2494 193 c 1,40,41
 2499 193 2499 193 2503 193 c 1,42,43
 2503 193 2503 193 2503 184 c 1,44,45
 2544 188 2544 188 2593 225 c 128,-1,46
 2642 262 2642 262 2662 295 c 1,47,-1
 2744 385 l 1,48,-1
 2810 328 l 1,49,-1
 2728 233 l 1,50,51
 2540 12 2540 12 2281 0 c 1,52,53
 2200 16 2200 16 2167 25 c 1,54,55
 1946 98 1946 98 1909 249.5 c 128,-1,56
 1872 401 1872 401 1851 750 c 1,57,58
 1827 1094 1827 1094 1712 1208 c 1,59,60
 1655 1266 1655 1266 1528 1266 c 2,61,-1
 1409 1266 l 1,9,-1
EndSplineSet
Validated: 1
EndChar

StartChar: T
Encoding: 84 84 68
Width: 2318
Flags: W
LayerCount: 2
Fore
SplineSet
872 3191 m 1,0,-1
 745 3191 l 2,1,2
 504 3191 504 3191 369 3047 c 1,3,4
 233 2904 233 2904 233 2671 c 2,5,-1
 233 2343 l 1,6,-1
 143 2343 l 1,7,-1
 143 3359 l 1,8,-1
 233 3359 l 1,9,-1
 233 3281 l 1,10,-1
 2089 3281 l 1,11,-1
 2089 3359 l 1,12,-1
 2167 3359 l 1,13,-1
 2167 2343 l 1,14,-1
 2089 2343 l 1,15,-1
 2089 2671 l 2,16,17
 2089 2920 2089 2920 1949.5 3055.5 c 128,-1,18
 1810 3191 1810 3191 1577 3191 c 2,19,-1
 1442 3191 l 1,20,-1
 1442 86 l 1,21,-1
 1745 86 l 1,22,-1
 1745 0 l 1,23,-1
 569 0 l 1,24,-1
 569 86 l 1,25,-1
 872 86 l 1,26,-1
 872 3191 l 1,0,-1
EndSplineSet
Validated: 1
EndChar

StartChar: Y
Encoding: 89 89 69
Width: 2769
Flags: W
LayerCount: 2
Fore
SplineSet
1024 3191 m 1,0,-1
 1503 1401 l 1,1,-1
 1982 2617 l 1,2,3
 2064 2875 2064 2875 2064 2953 c 0,4,5
 2064 3191 2064 3191 1794 3191 c 2,6,-1
 1753 3191 l 1,7,-1
 1753 3281 l 1,8,-1
 2609 3281 l 1,9,-1
 2609 3191 l 1,10,-1
 2576 3191 l 2,11,12
 2560 3191 2560 3191 2544 3191 c 0,13,14
 2384 3191 2384 3191 2306 3080 c 1,15,16
 2220 2953 2220 2953 2081 2609 c 1,17,-1
 1544 1257 l 1,18,-1
 1544 86 l 1,19,-1
 1847 86 l 1,20,-1
 1847 0 l 1,21,-1
 680 0 l 1,22,-1
 680 86 l 1,23,-1
 983 86 l 1,24,-1
 983 1257 l 1,25,-1
 455 3191 l 1,26,-1
 152 3191 l 1,27,-1
 152 3281 l 1,28,-1
 1327 3281 l 1,29,-1
 1327 3191 l 1,30,-1
 1024 3191 l 1,0,-1
EndSplineSet
Validated: 1
EndChar

StartChar: U
Encoding: 85 85 70
Width: 2642
Flags: W
LayerCount: 2
Fore
SplineSet
1462 -8 m 0,0,1
 1401 -12 1401 -12 1339 -12 c 0,2,3
 1143 -12 1143 -12 958 49 c 0,4,5
 721 127 721 127 582 307 c 1,6,7
 438 487 438 487 438 745 c 2,8,-1
 438 3191 l 1,9,-1
 176 3191 l 1,10,-1
 176 3289 l 1,11,-1
 1303 3289 l 1,12,-1
 1303 3191 l 1,13,-1
 999 3191 l 1,14,-1
 999 639 l 2,15,16
 999 438 999 438 1122 303 c 128,-1,17
 1245 168 1245 168 1470 152 c 1,18,19
 1495 152 1495 152 1516 152 c 0,20,21
 2032 152 2032 152 2032 791 c 2,22,-1
 2032 2785 l 2,23,24
 2032 2929 2032 2929 2015 3006 c 1,25,26
 1995 3084 1995 3084 1937 3125 c 1,27,28
 1880 3162 1880 3162 1745 3183 c 1,29,-1
 1696 3191 l 1,30,-1
 1696 3281 l 1,31,-1
 2494 3281 l 1,32,-1
 2494 3191 l 1,33,-1
 2449 3183 l 1,34,35
 2261 3158 2261 3158 2204 3076 c 1,36,37
 2142 2990 2142 2990 2142 2785 c 2,38,-1
 2142 881 l 2,39,40
 2142 578 2142 578 2073 385 c 1,41,42
 2003 193 2003 193 1855 102 c 0,43,44
 1708 12 1708 12 1462 -8 c 0,0,1
EndSplineSet
Validated: 1
EndChar

StartChar: I
Encoding: 73 73 71
Width: 1638
Flags: W
LayerCount: 2
Fore
SplineSet
1118 86 m 1,0,-1
 1425 86 l 1,1,-1
 1425 0 l 1,2,-1
 250 0 l 1,3,-1
 250 86 l 1,4,-1
 553 86 l 1,5,-1
 553 3191 l 1,6,-1
 250 3191 l 1,7,-1
 250 3281 l 1,8,-1
 1425 3281 l 1,9,-1
 1425 3191 l 1,10,-1
 1118 3191 l 1,11,-1
 1118 86 l 1,0,-1
EndSplineSet
Validated: 1
EndChar

StartChar: O
Encoding: 79 79 72
Width: 2863
Flags: W
LayerCount: 2
Fore
SplineSet
1425 3273 m 0,0,1
 1810 3273 1810 3273 2105 3043 c 1,2,3
 2400 2810 2400 2810 2560 2433 c 1,4,5
 2720 2052 2720 2052 2720 1638 c 0,6,7
 2720 1237 2720 1237 2564 852 c 1,8,9
 2404 467 2404 467 2114 233 c 1,10,11
 1823 0 1823 0 1434 0 c 0,12,13
 1143 0 1143 0 905 135 c 0,14,15
 668 270 668 270 492 512 c 1,16,17
 311 750 311 750 225 1049 c 1,18,19
 135 1348 135 1348 135 1638 c 0,20,21
 135 2052 135 2052 295 2433 c 1,22,23
 455 2810 455 2810 745 3043 c 1,24,25
 1036 3273 1036 3273 1425 3273 c 0,0,1
754 1630 m 0,26,27
 754 1290 754 1290 770 1060.5 c 128,-1,28
 786 831 786 831 852 602 c 1,29,30
 918 369 918 369 1057 233 c 1,31,32
 1196 94 1196 94 1417 94 c 0,33,34
 1847 94 1847 94 1970 516 c 1,35,36
 2089 934 2089 934 2089 1630 c 0,37,38
 2089 2265 2089 2265 1966 2720 c 1,39,40
 1839 3174 1839 3174 1417 3174 c 0,41,42
 1118 3174 1118 3174 975 2945 c 1,43,44
 827 2716 827 2716 791 2404 c 0,45,46
 754 2089 754 2089 754 1630 c 0,26,27
EndSplineSet
Validated: 1
EndChar

StartChar: P
Encoding: 80 80 73
Width: 2535
Flags: W
LayerCount: 2
Fore
SplineSet
1024 1352 m 1,0,-1
 1106 1352 l 2,1,2
 1753 1352 1753 1352 1753 2286 c 0,3,4
 1753 2314 1753 2314 1753 2343 c 0,5,6
 1729 3191 1729 3191 1126 3191 c 2,7,-1
 1024 3191 l 1,8,-1
 1024 1352 l 1,0,-1
1327 0 m 1,9,-1
 152 0 l 1,10,-1
 152 86 l 1,11,-1
 455 86 l 1,12,-1
 455 3191 l 1,13,-1
 152 3191 l 1,14,-1
 152 3281 l 1,15,-1
 1286 3281 l 2,16,17
 1565 3281 1565 3281 1815 3162 c 1,18,19
 2060 3039 2060 3039 2216 2826 c 1,20,21
 2372 2609 2372 2609 2384 2335 c 1,22,23
 2384 2310 2384 2310 2384 2286 c 0,24,25
 2384 2036 2384 2036 2261 1810 c 0,26,27
 2126 1561 2126 1561 1888 1413 c 1,28,29
 1647 1266 1647 1266 1368 1266 c 2,30,-1
 1024 1266 l 1,31,-1
 1024 94 l 1,32,-1
 1327 94 l 1,33,-1
 1327 0 l 1,9,-1
EndSplineSet
Validated: 1
EndChar

StartChar: braceleft
Encoding: 123 123 74
Width: 1184
Flags: W
LayerCount: 2
Fore
SplineSet
1008 3441 m 1,0,1
 1012 3408 1012 3408 1016 3367 c 1,2,3
 1016 3322 1016 3322 1016 3240 c 2,4,-1
 1016 3224 l 1,5,6
 819 3224 819 3224 770 3195 c 1,7,8
 717 3162 717 3162 713 3064 c 1,9,10
 721 3015 721 3015 721 2896 c 2,11,-1
 721 2081 l 2,12,13
 721 1978 721 1978 655 1892 c 1,14,15
 586 1806 586 1806 496 1741 c 0,16,17
 410 1679 410 1679 401 1679 c 1,18,19
 401 1679 401 1679 401 1679 c 1,20,21
 483 1634 483 1634 602 1528 c 1,22,23
 721 1417 721 1417 721 1282 c 2,24,-1
 721 455 l 2,25,26
 721 393 721 393 713 360 c 1,27,28
 721 221 721 221 766 193 c 1,29,30
 811 160 811 160 1016 160 c 1,31,32
 1020 143 1020 143 1024 119 c 1,33,34
 1024 94 1024 94 1024 25 c 0,35,36
 1024 -20 1024 -20 1024 -33 c 1,37,38
 1020 -49 1020 -49 1016 -57 c 1,39,40
 991 -57 991 -57 967 -57 c 0,41,42
 672 -57 672 -57 578 74 c 1,43,44
 471 217 471 217 471 455 c 2,45,-1
 471 1282 l 2,46,47
 471 1409 471 1409 303 1552 c 1,48,49
 152 1679 152 1679 135 1679 c 1,50,51
 135 1679 135 1679 135 1679 c 257,52,53
 135 1679 135 1679 229 1737 c 1,54,55
 324 1794 324 1794 397 1880 c 0,56,57
 471 1966 471 1966 471 2081 c 2,58,-1
 471 2896 l 2,59,60
 471 3138 471 3138 578 3289 c 1,61,62
 680 3441 680 3441 1008 3441 c 1,0,1
EndSplineSet
Validated: 5
EndChar

StartChar: braceright
Encoding: 125 125 75
Width: 1217
Flags: W
LayerCount: 2
Fore
SplineSet
705 2896 m 2,0,-1
 705 2081 l 2,1,2
 705 1962 705 1962 791 1876 c 128,-1,3
 877 1790 877 1790 983 1737 c 1,4,5
 1090 1679 1090 1679 1090 1679 c 257,6,7
 1090 1679 1090 1679 1090 1679 c 1,8,9
 1077 1679 1077 1679 897 1544 c 0,10,11
 705 1401 705 1401 705 1282 c 2,12,-1
 705 455 l 2,13,14
 705 213 705 213 602 74 c 1,15,16
 508 -57 508 -57 213 -57 c 0,17,18
 188 -57 188 -57 160 -57 c 1,19,20
 160 -49 160 -49 156 -33 c 0,21,22
 152 -16 152 -16 143 25 c 1,23,24
 152 86 152 86 156 114.5 c 128,-1,25
 160 143 160 143 160 160 c 1,26,27
 365 160 365 160 410 193 c 1,28,29
 455 221 455 221 455 360 c 2,30,-1
 455 455 l 1,31,-1
 455 1282 l 2,32,33
 455 1413 455 1413 590 1523.5 c 128,-1,34
 725 1634 725 1634 815 1679 c 1,35,36
 815 1679 815 1679 815 1679 c 1,37,38
 803 1679 803 1679 717 1737 c 1,39,40
 614 1802 614 1802 537 1892 c 1,41,42
 455 1978 455 1978 455 2081 c 2,43,-1
 455 2896 l 1,44,-1
 455 3064 l 2,45,46
 455 3166 455 3166 410 3195 c 128,-1,47
 365 3224 365 3224 160 3224 c 1,48,49
 160 3228 160 3228 160 3232 c 1,50,51
 160 3232 160 3232 152 3240 c 1,52,53
 152 3240 152 3240 160 3326 c 0,54,55
 168 3408 168 3408 168 3441 c 1,56,57
 496 3441 496 3441 602 3289 c 1,58,59
 705 3138 705 3138 705 2896 c 2,0,-1
EndSplineSet
Validated: 5
EndChar

StartChar: bar
Encoding: 124 124 76
Width: 614
Flags: W
LayerCount: 2
Fore
SplineSet
401 0 m 1,0,-1
 225 0 l 1,1,-1
 225 3281 l 1,2,-1
 401 3281 l 1,3,-1
 401 0 l 1,0,-1
EndSplineSet
Validated: 1
EndChar

StartChar: A
Encoding: 65 65 77
Width: 3232
Flags: W
LayerCount: 2
Fore
SplineSet
1008 1384 m 1,0,-1
 1753 1384 l 1,1,-1
 1360 2408 l 1,2,-1
 1008 1384 l 1,0,-1
958 86 m 2,3,-1
 999 86 l 1,4,-1
 999 0 l 1,5,-1
 119 0 l 1,6,-1
 119 86 l 1,7,-1
 152 86 l 2,8,9
 332 86 332 86 442 238 c 0,10,11
 549 385 549 385 623 594 c 2,12,-1
 1577 3281 l 1,13,-1
 1638 3281 l 1,14,-1
 2839 86 l 1,15,-1
 3097 86 l 1,16,-1
 3097 0 l 1,17,-1
 1966 0 l 1,18,-1
 1966 86 l 1,19,-1
 2273 86 l 1,20,-1
 1778 1303 l 1,21,-1
 983 1303 l 1,22,-1
 729 578 l 1,23,24
 692 451 692 451 680 360 c 1,25,26
 692 242 692 242 770 164 c 128,-1,27
 848 86 848 86 958 86 c 2,3,-1
EndSplineSet
Validated: 1
EndChar

StartChar: S
Encoding: 83 83 78
Width: 1962
Flags: W
LayerCount: 2
Fore
SplineSet
991 0 m 0,0,1
 791 0 791 0 610 41 c 0,2,3
 430 82 430 82 225 193 c 1,4,-1
 225 -74 l 1,5,-1
 135 -74 l 1,6,-1
 135 950 l 1,7,-1
 225 950 l 1,8,-1
 225 569 l 1,9,10
 324 365 324 365 537 229 c 0,11,12
 750 94 750 94 967 86 c 1,13,14
 1167 115 1167 115 1303 217 c 1,15,16
 1434 319 1434 319 1434 504 c 0,17,18
 1434 692 1434 692 1294 889 c 1,19,20
 1085 1192 1085 1192 528 1593 c 0,21,22
 340 1729 340 1729 238 1937 c 0,23,24
 135 2146 135 2146 127 2376 c 1,25,26
 135 2753 135 2753 373 3019 c 1,27,28
 606 3281 606 3281 1024 3281 c 0,29,30
 1192 3281 1192 3281 1327 3244 c 128,-1,31
 1462 3207 1462 3207 1610 3154 c 1,32,-1
 1610 3359 l 1,33,-1
 1696 3359 l 1,34,-1
 1696 2343 l 1,35,-1
 1610 2343 l 1,36,-1
 1610 2720 l 1,37,38
 1548 2920 1548 2920 1384 3052 c 0,39,40
 1221 3183 1221 3183 1032 3183 c 0,41,42
 745 3183 745 3183 598 3072 c 0,43,44
 446 2957 446 2957 438 2769 c 1,45,46
 446 2560 446 2560 623 2331 c 1,47,48
 795 2101 795 2101 1126 1905 c 0,49,50
 1823 1491 1823 1491 1823 905 c 0,51,52
 1823 672 1823 672 1700 463 c 1,53,54
 1577 250 1577 250 1384 127 c 1,55,56
 1192 0 1192 0 991 0 c 0,0,1
EndSplineSet
Validated: 1
EndChar

StartChar: D
Encoding: 68 68 79
Width: 3006
Flags: W
LayerCount: 2
Fore
SplineSet
184 3191 m 1,0,-1
 184 3281 l 1,1,-1
 1450 3289 l 1,2,3
 1729 3289 1729 3289 1987 3150 c 128,-1,4
 2245 3011 2245 3011 2441 2785 c 1,5,6
 2638 2556 2638 2556 2761 2257 c 1,7,8
 2879 1954 2879 1954 2879 1638 c 0,9,10
 2879 1229 2879 1229 2691 848 c 1,11,12
 2499 467 2499 467 2171 233 c 0,13,14
 1843 0 1843 0 1454 0 c 2,15,-1
 184 0 l 1,16,-1
 184 86 l 1,17,-1
 487 86 l 1,18,-1
 487 3191 l 1,19,-1
 184 3191 l 1,0,-1
1462 86 m 2,20,21
 2281 86 2281 86 2281 1630 c 0,22,23
 2281 2249 2281 2249 2080.5 2724 c 128,-1,24
 1880 3199 1880 3199 1442 3199 c 2,25,-1
 1057 3199 l 1,26,-1
 1057 86 l 1,27,-1
 1462 86 l 2,20,21
EndSplineSet
Validated: 1
EndChar

StartChar: F
Encoding: 70 70 80
Width: 2265
Flags: W
LayerCount: 2
Fore
SplineSet
463 86 m 1,0,-1
 463 3191 l 1,1,-1
 168 3191 l 1,2,-1
 168 3281 l 1,3,-1
 2032 3281 l 1,4,-1
 2032 3359 l 1,5,-1
 2122 3359 l 1,6,-1
 2122 2343 l 1,7,-1
 2032 2343 l 1,8,-1
 2032 2671 l 2,9,10
 2032 2990 2032 2990 1823 3092 c 1,11,12
 1610 3191 1610 3191 1294 3191 c 2,13,-1
 1040 3191 l 1,14,-1
 1040 1360 l 1,15,-1
 1257 1360 l 2,16,17
 1303 1360 1303 1360 1327 1352 c 1,18,19
 1499 1360 1499 1360 1589 1417 c 1,20,21
 1679 1470 1679 1470 1679 1655 c 2,22,-1
 1679 1847 l 1,23,-1
 1761 1847 l 1,24,-1
 1761 791 l 1,25,-1
 1671 791 l 1,26,-1
 1671 991 l 2,27,28
 1671 1167 1671 1167 1577 1225 c 1,29,30
 1479 1282 1479 1282 1311 1282 c 2,31,-1
 1249 1282 l 1,32,-1
 1040 1282 l 1,33,-1
 1040 86 l 1,34,-1
 1294 86 l 1,35,-1
 1294 0 l 1,36,-1
 168 0 l 1,37,-1
 168 86 l 1,38,-1
 463 86 l 1,0,-1
EndSplineSet
Validated: 1
EndChar

StartChar: G
Encoding: 71 71 81
Width: 2703
Flags: W
LayerCount: 2
Fore
SplineSet
2359 217 m 1,0,1
 2142 86 2142 86 1966 37 c 1,2,3
 1827 -4 1827 -4 1667 -4 c 0,4,5
 1626 -4 1626 -4 1585 0 c 1,6,7
 1196 16 1196 16 864 249.5 c 128,-1,8
 532 483 532 483 344 856 c 1,9,10
 152 1225 152 1225 152 1638 c 0,11,12
 152 2052 152 2052 352 2433 c 0,13,14
 553 2814 553 2814 889 3047 c 0,15,16
 1225 3281 1225 3281 1585 3281 c 0,17,18
 1905 3281 1905 3281 2167 3154 c 1,19,-1
 2167 3359 l 1,20,-1
 2257 3359 l 1,21,-1
 2257 2343 l 1,22,-1
 2167 2343 l 1,23,-1
 2167 2929 l 1,24,25
 1913 3162 1913 3162 1602 3183 c 1,26,27
 1573 3187 1573 3187 1544 3187 c 0,28,29
 1282 3187 1282 3187 1110 2974 c 1,30,31
 918 2740 918 2740 836 2379.5 c 128,-1,32
 754 2019 754 2019 754 1630 c 0,33,34
 754 1237 754 1237 819 901 c 1,35,36
 881 565 881 565 1069 332 c 1,37,38
 1253 94 1253 94 1577 74 c 1,39,40
 1614 78 1614 78 1642 82 c 1,41,42
 1671 82 1671 82 1720 82 c 1,43,-1
 1720 1200 l 1,44,-1
 1417 1200 l 1,45,-1
 1417 1286 l 1,46,-1
 2544 1286 l 1,47,-1
 2544 1200 l 1,48,-1
 2290 1200 l 1,49,-1
 2290 336 l 2,50,51
 2290 270 2290 270 2359 217 c 1,0,1
EndSplineSet
Validated: 1
EndChar

StartChar: H
Encoding: 72 72 82
Width: 2937
Flags: W
LayerCount: 2
Fore
SplineSet
1888 1343 m 1,0,-1
 1888 3191 l 1,1,-1
 1577 3191 l 1,2,-1
 1577 3281 l 1,3,-1
 2712 3281 l 1,4,-1
 2712 3191 l 1,5,-1
 2458 3191 l 1,6,-1
 2458 86 l 1,7,-1
 2712 86 l 1,8,-1
 2712 0 l 1,9,-1
 1577 0 l 1,10,-1
 1577 86 l 1,11,-1
 1888 86 l 1,12,-1
 1888 1257 l 1,13,-1
 1065 1257 l 1,14,-1
 1065 86 l 1,15,-1
 1327 86 l 1,16,-1
 1327 0 l 1,17,-1
 193 0 l 1,18,-1
 193 86 l 1,19,-1
 496 86 l 1,20,-1
 496 3191 l 1,21,-1
 193 3191 l 1,22,-1
 193 3281 l 1,23,-1
 1327 3281 l 1,24,-1
 1327 3191 l 1,25,-1
 1065 3191 l 1,26,-1
 1065 1343 l 1,27,-1
 1888 1343 l 1,0,-1
EndSplineSet
Validated: 1
EndChar

StartChar: J
Encoding: 74 74 83
Width: 1794
Flags: W
LayerCount: 2
Fore
SplineSet
1286 3191 m 1,0,-1
 1286 848 l 2,1,2
 1286 455 1286 455 1183.5 283 c 128,-1,3
 1081 111 1081 111 864 33 c 1,4,5
 741 -16 741 -16 578 -16 c 0,6,7
 307 -16 307 -16 160 143 c 1,8,-1
 160 287 l 1,9,10
 283 86 283 86 504 74 c 1,11,12
 721 90 721 90 721 344 c 2,13,-1
 721 3191 l 1,14,-1
 418 3191 l 1,15,-1
 418 3281 l 1,16,-1
 1544 3281 l 1,17,-1
 1544 3191 l 1,18,-1
 1286 3191 l 1,0,-1
EndSplineSet
Validated: 1
EndChar

StartChar: K
Encoding: 75 75 84
Width: 2904
Flags: W
LayerCount: 2
Fore
SplineSet
1966 3080 m 0,0,1
 1917 3191 1917 3191 1745 3191 c 2,2,-1
 1696 3191 l 1,3,-1
 1696 3281 l 1,4,-1
 2552 3281 l 1,5,-1
 2552 3191 l 1,6,-1
 2519 3191 l 2,7,8
 2351 3191 2351 3191 2257 3076 c 1,9,10
 2163 2957 2163 2957 2007 2687 c 1,11,-1
 1425 1720 l 1,12,-1
 2433 86 l 1,13,-1
 2744 86 l 1,14,-1
 2744 0 l 1,15,-1
 1913 0 l 1,16,-1
 1073 1294 l 1,17,-1
 1073 94 l 1,18,-1
 1376 94 l 1,19,-1
 1376 0 l 1,20,-1
 209 0 l 1,21,-1
 209 86 l 1,22,-1
 512 86 l 1,23,-1
 512 3191 l 1,24,-1
 209 3191 l 1,25,-1
 209 3281 l 1,26,-1
 1376 3281 l 1,27,-1
 1376 3191 l 1,28,-1
 1073 3191 l 1,29,-1
 1073 1425 l 1,30,-1
 1761 2527 l 1,31,32
 1974 2892 1974 2892 1974 3023 c 0,33,34
 1974 3047 1974 3047 1974 3060 c 1,35,36
 1970 3072 1970 3072 1966 3080 c 0,0,1
EndSplineSet
Validated: 1
EndChar

StartChar: L
Encoding: 76 76 85
Width: 2281
Flags: W
LayerCount: 2
Fore
SplineSet
184 3281 m 1,0,-1
 1352 3281 l 1,1,-1
 1352 3191 l 1,2,-1
 1057 3191 l 1,3,-1
 1057 86 l 1,4,-1
 1511 86 l 2,5,6
 1757 86 1757 86 1901 160 c 1,7,8
 2040 233 2040 233 2040 528 c 2,9,-1
 2040 729 l 1,10,-1
 2130 729 l 1,11,-1
 2130 -86 l 1,12,-1
 2040 -86 l 1,13,-1
 2040 0 l 1,14,-1
 184 0 l 1,15,-1
 184 86 l 1,16,-1
 487 86 l 1,17,-1
 487 3191 l 1,18,-1
 184 3191 l 1,19,-1
 184 3281 l 1,0,-1
EndSplineSet
Validated: 1
EndChar

StartChar: colon
Encoding: 58 58 86
Width: 688
Flags: W
LayerCount: 2
Fore
SplineSet
545 217 m 1,0,1
 545 131 545 131 479 66 c 1,2,3
 414 0 414 0 328 0 c 1,4,5
 242 8 242 8 184 74 c 0,6,7
 127 139 127 139 127 209 c 0,8,9
 127 291 127 291 184 356 c 1,10,11
 242 418 242 418 328 418 c 256,12,13
 414 418 414 418 479 365 c 1,14,15
 541 307 541 307 545 217 c 1,0,1
545 1118 m 1,16,17
 545 1028 545 1028 479 963 c 1,18,19
 414 897 414 897 328 897 c 1,20,21
 242 905 242 905 184 971 c 1,22,23
 127 1032 127 1032 127 1110 c 0,24,25
 127 1192 127 1192 188 1257 c 0,26,27
 246 1319 246 1319 328 1319 c 0,28,29
 414 1319 414 1319 479 1262 c 1,30,31
 541 1200 541 1200 545 1118 c 1,16,17
EndSplineSet
Validated: 1
EndChar

StartChar: quotedbl
Encoding: 34 34 87
Width: 1233
Flags: W
LayerCount: 2
Fore
SplineSet
360 3400 m 0,0,1
 438 3400 438 3400 504 3338 c 0,2,3
 569 3277 569 3277 569 3191 c 0,4,5
 569 3084 569 3084 471 3015 c 1,6,7
 455 3002 455 3002 438 2966 c 1,8,9
 422 2925 422 2925 397 2851 c 1,10,11
 369 2773 369 2773 352 2728 c 1,12,13
 287 2978 287 2978 250 3006 c 0,14,15
 152 3080 152 3080 152 3191 c 0,16,17
 152 3277 152 3277 213 3338 c 0,18,19
 274 3400 274 3400 360 3400 c 0,0,1
856 3400 m 0,20,21
 942 3400 942 3400 1004 3342 c 0,22,23
 1065 3285 1065 3285 1065 3191 c 0,24,25
 1065 3076 1065 3076 967 3015 c 1,26,27
 946 2998 946 2998 848 2728 c 1,28,29
 778 2990 778 2990 745 3015 c 1,30,31
 647 3084 647 3084 647 3191 c 0,32,33
 647 3277 647 3277 713 3338 c 1,34,35
 778 3400 778 3400 856 3400 c 0,20,21
EndSplineSet
Validated: 1
EndChar

StartChar: Z
Encoding: 90 90 88
Width: 2130
Flags: W
LayerCount: 2
Fore
SplineSet
1921 3281 m 1,0,-1
 721 86 l 1,1,-1
 1184 86 l 2,2,3
 1544 86 1544 86 1704 193 c 1,4,5
 1864 295 1864 295 1864 647 c 2,6,-1
 1864 840 l 1,7,-1
 1954 840 l 1,8,-1
 1954 -86 l 1,9,-1
 1864 -86 l 1,10,-1
 1864 0 l 1,11,-1
 111 0 l 1,12,-1
 1303 3191 l 1,13,-1
 999 3191 l 2,14,15
 676 3191 676 3191 512 3072 c 0,16,17
 344 2949 344 2949 344 2642 c 2,18,-1
 344 2343 l 1,19,-1
 262 2343 l 1,20,-1
 262 3359 l 1,21,-1
 344 3359 l 1,22,-1
 344 3281 l 1,23,-1
 1921 3281 l 1,0,-1
EndSplineSet
Validated: 1
EndChar

StartChar: X
Encoding: 88 88 89
Width: 2810
Flags: W
LayerCount: 2
Fore
SplineSet
1233 1393 m 1,0,-1
 471 3191 l 1,1,-1
 168 3191 l 1,2,-1
 168 3281 l 1,3,-1
 1335 3281 l 1,4,-1
 1335 3191 l 1,5,-1
 1032 3191 l 1,6,-1
 1552 1991 l 1,7,-1
 1966 2695 l 1,8,9
 2056 2859 2056 2859 2056 2986 c 0,10,11
 2056 3191 2056 3191 1806 3191 c 2,12,-1
 1769 3191 l 1,13,-1
 1769 3281 l 1,14,-1
 2626 3281 l 1,15,-1
 2626 3191 l 1,16,-1
 2593 3191 l 2,17,18
 2449 3191 2449 3191 2326.5 3055.5 c 128,-1,19
 2204 2920 2204 2920 2073 2687 c 1,20,-1
 1593 1896 l 1,21,-1
 2351 86 l 1,22,-1
 2654 86 l 1,23,-1
 2654 0 l 1,24,-1
 1479 0 l 1,25,-1
 1479 86 l 1,26,-1
 1786 86 l 1,27,-1
 1286 1274 l 1,28,-1
 897 623 l 1,29,30
 819 496 819 496 774 406 c 1,31,32
 725 311 725 311 721 242 c 1,33,34
 733 86 733 86 983 86 c 2,35,-1
 1024 86 l 1,36,-1
 1024 0 l 1,37,-1
 168 0 l 1,38,-1
 168 86 l 1,39,-1
 201 86 l 2,40,41
 365 86 365 86 483 213 c 1,42,43
 598 340 598 340 745 586 c 1,44,-1
 1233 1393 l 1,0,-1
EndSplineSet
Validated: 1
EndChar

StartChar: C
Encoding: 67 67 90
Width: 2535
Flags: W
LayerCount: 2
Fore
SplineSet
1569 3281 m 0,0,1
 1733 3281 1733 3281 1860 3248 c 128,-1,2
 1987 3215 1987 3215 2150 3154 c 1,3,-1
 2150 3359 l 1,4,-1
 2241 3359 l 1,5,-1
 2241 2343 l 1,6,-1
 2150 2343 l 1,7,-1
 2150 2929 l 1,8,9
 1909 3162 1909 3162 1585 3183 c 1,10,11
 1561 3183 1561 3183 1536 3183 c 0,12,13
 1352 3183 1352 3183 1204 3076 c 1,14,15
 1036 2949 1036 2949 938 2732 c 1,16,17
 836 2515 836 2515 790.5 2269 c 128,-1,18
 745 2023 745 2023 737 1729 c 1,19,20
 745 1696 745 1696 745 1630 c 1,21,22
 754 1188 754 1188 811 881 c 0,23,24
 868 569 868 569 1049 344 c 1,25,26
 1225 119 1225 119 1561 94 c 1,27,28
 1614 94 1614 94 1646.5 90 c 128,-1,29
 1679 86 1679 86 1720 82 c 1,30,31
 2093 86 2093 86 2392 328 c 1,32,-1
 2392 184 l 1,33,34
 2040 0 2040 0 1671 0 c 0,35,36
 1352 0 1352 0 1065 135 c 128,-1,37
 778 270 778 270 578 500 c 1,38,39
 373 725 373 725 258 1024 c 128,-1,40
 143 1323 143 1323 143 1638 c 0,41,42
 143 2052 143 2052 344 2433 c 128,-1,43
 545 2814 545 2814 881 3047 c 1,44,45
 1212 3281 1212 3281 1569 3281 c 0,0,1
EndSplineSet
Validated: 1
EndChar

StartChar: V
Encoding: 86 86 91
Width: 3047
Flags: W
LayerCount: 2
Fore
SplineSet
975 3191 m 1,0,-1
 1704 872 l 1,1,-1
 2298 2703 l 1,2,3
 2351 2916 2351 2916 2351 2986 c 0,4,5
 2351 3191 2351 3191 2114 3191 c 2,6,-1
 2073 3191 l 1,7,-1
 2073 3281 l 1,8,-1
 2929 3281 l 1,9,-1
 2929 3191 l 1,10,-1
 2896 3191 l 2,11,12
 2679 3191 2679 3191 2572 3060 c 1,13,14
 2462 2929 2462 2929 2384 2687 c 2,15,-1
 1520 0 l 1,16,-1
 1425 0 l 1,17,-1
 410 3191 l 1,18,-1
 152 3191 l 1,19,-1
 152 3281 l 1,20,-1
 1282 3281 l 1,21,-1
 1282 3191 l 1,22,-1
 975 3191 l 1,0,-1
EndSplineSet
Validated: 1
EndChar

StartChar: B
Encoding: 66 66 92
Width: 2535
Flags: W
LayerCount: 2
Fore
SplineSet
1249 0 m 2,0,-1
 168 0 l 1,1,-1
 168 86 l 1,2,-1
 471 86 l 1,3,-1
 471 3191 l 1,4,-1
 168 3191 l 1,5,-1
 168 3281 l 1,6,-1
 1294 3281 l 2,7,8
 1577 3281 1577 3281 1831 3162 c 1,9,10
 2081 3043 2081 3043 2241 2822 c 1,11,12
 2396 2601 2396 2601 2400 2335 c 1,13,14
 2400 2019 2400 2019 2241 1790 c 1,15,16
 2081 1556 2081 1556 1778 1425 c 1,17,-1
 1655 1368 l 1,18,-1
 1815 1335 l 1,19,20
 2085 1282 2085 1282 2249 1114 c 1,21,22
 2408 946 2408 946 2408 680 c 0,23,24
 2408 672 2408 672 2408 664 c 0,25,26
 2392 238 2392 238 2085 119 c 128,-1,27
 1778 0 1778 0 1249 0 c 2,0,-1
1384 1294 m 2,28,-1
 1032 1294 l 1,29,-1
 1032 86 l 1,30,-1
 1384 86 l 2,31,32
 1778 86 1778 86 1778 721 c 0,33,34
 1778 975 1778 975 1679 1135 c 1,35,36
 1577 1294 1577 1294 1384 1294 c 2,28,-1
1040 1384 m 1,37,-1
 1118 1384 l 2,38,39
 1405 1384 1405 1384 1589 1569 c 0,40,41
 1769 1749 1769 1749 1769 2318 c 0,42,43
 1769 2331 1769 2331 1769 2343 c 0,44,45
 1761 2687 1761 2687 1634 2941 c 1,46,47
 1507 3191 1507 3191 1143 3191 c 2,48,-1
 1040 3191 l 1,49,-1
 1040 1384 l 1,37,-1
EndSplineSet
Validated: 1
EndChar

StartChar: N
Encoding: 78 78 93
Width: 2822
Flags: W
LayerCount: 2
Fore
SplineSet
1032 3281 m 1,0,-1
 2150 1376 l 1,1,-1
 2150 2785 l 2,2,3
 2150 2929 2150 2929 2134 3011 c 1,4,5
 2114 3088 2114 3088 2060 3125 c 1,6,7
 2003 3162 2003 3162 1864 3183 c 1,8,-1
 1815 3191 l 1,9,-1
 1815 3281 l 1,10,-1
 2617 3281 l 1,11,-1
 2617 3191 l 1,12,-1
 2568 3183 l 1,13,14
 2429 3162 2429 3162 2372 3125 c 1,15,16
 2314 3084 2314 3084 2297.5 3014.5 c 128,-1,17
 2281 2945 2281 2945 2281 2785 c 2,18,-1
 2281 0 l 1,19,-1
 2134 0 l 1,20,-1
 2134 233 l 1,21,-1
 823 2343 l 1,22,-1
 823 496 l 2,23,24
 823 303 823 303 893 213 c 1,25,26
 958 123 958 123 1135 94 c 2,27,-1
 1184 86 l 1,28,-1
 1184 0 l 1,29,-1
 385 0 l 1,30,-1
 385 86 l 1,31,-1
 438 94 l 1,32,33
 602 123 602 123 664 217 c 1,34,35
 721 311 721 311 721 487 c 2,36,-1
 721 2503 l 1,37,-1
 455 2945 l 1,38,39
 373 3076 373 3076 328 3133 c 1,40,41
 279 3191 279 3191 193 3191 c 2,42,-1
 176 3191 l 1,43,-1
 176 3281 l 1,44,-1
 1032 3281 l 1,0,-1
EndSplineSet
Validated: 1
EndChar

StartChar: M
Encoding: 77 77 94
Width: 3482
Flags: W
LayerCount: 2
Fore
SplineSet
721 487 m 2,0,-1
 721 2318 l 2,1,2
 721 2556 721 2556 573 2875 c 0,3,4
 426 3191 426 3191 225 3191 c 2,5,-1
 193 3191 l 1,6,-1
 193 3281 l 1,7,-1
 1032 3281 l 1,8,-1
 1786 1184 l 1,9,-1
 2458 3281 l 1,10,-1
 3305 3281 l 1,11,-1
 3305 3191 l 1,12,-1
 3273 3191 l 2,13,14
 3035 3191 3035 3191 2974 3019 c 0,15,16
 2912 2843 2912 2843 2912 2576 c 2,17,-1
 2912 86 l 1,18,-1
 3215 86 l 1,19,-1
 3215 0 l 1,20,-1
 2040 0 l 1,21,-1
 2040 86 l 1,22,-1
 2343 86 l 1,23,-1
 2343 2609 l 1,24,-1
 1602 242 l 1,25,-1
 823 2159 l 1,26,-1
 823 496 l 2,27,28
 823 315 823 315 897 221 c 1,29,30
 971 123 971 123 1135 94 c 1,31,-1
 1184 86 l 1,32,-1
 1184 0 l 1,33,-1
 385 0 l 1,34,-1
 385 86 l 1,35,-1
 438 94 l 1,36,37
 721 143 721 143 721 487 c 2,0,-1
EndSplineSet
Validated: 1
EndChar

StartChar: less
Encoding: 60 60 95
Width: 1913
Flags: W
LayerCount: 2
Fore
SplineSet
1585 2335 m 1,0,-1
 1753 2175 l 1,1,-1
 455 1118 l 1,2,-1
 1786 152 l 1,3,-1
 1647 -16 l 1,4,-1
 111 1118 l 1,5,-1
 1585 2335 l 1,0,-1
EndSplineSet
Validated: 1
EndChar

StartChar: greater
Encoding: 62 62 96
Width: 1937
Flags: W
LayerCount: 2
Fore
SplineSet
143 2175 m 1,0,-1
 311 2335 l 1,1,-1
 1794 1118 l 1,2,-1
 250 -16 l 1,3,-1
 119 152 l 1,4,-1
 1450 1118 l 1,5,-1
 143 2175 l 1,0,-1
EndSplineSet
Validated: 1
EndChar

StartChar: question
Encoding: 63 63 97
Width: 1823
Flags: W
LayerCount: 2
Fore
SplineSet
897 201 m 0,0,1
 897 111 897 111 831 53 c 0,2,3
 762 -8 762 -8 680 -8 c 256,4,5
 598 -8 598 -8 541 57 c 1,6,7
 479 119 479 119 479 201 c 0,8,9
 479 279 479 279 541 344 c 1,10,11
 598 410 598 410 680 410 c 256,12,13
 762 410 762 410 831 348 c 1,14,15
 897 283 897 283 897 201 c 0,0,1
721 721 m 2,16,-1
 721 647 l 1,17,-1
 631 647 l 1,18,-1
 631 737 l 2,19,20
 631 979 631 979 745 1266 c 1,21,22
 856 1552 856 1552 971 1839 c 0,23,24
 1085 2122 1085 2122 1090 2376 c 1,25,26
 1090 3146 1090 3146 696 3154 c 1,27,28
 492 3154 492 3154 311 2986 c 1,29,-1
 242 2929 l 1,30,-1
 242 2343 l 1,31,-1
 152 2343 l 1,32,-1
 152 3359 l 1,33,-1
 242 3359 l 1,34,-1
 242 3088 l 1,35,36
 262 3097 262 3097 360 3150 c 0,37,38
 459 3203 459 3203 553 3232 c 0,39,40
 643 3260 643 3260 745 3265 c 1,41,42
 782 3269 782 3269 819 3269 c 0,43,44
 1130 3269 1130 3269 1393 3105 c 1,45,46
 1679 2920 1679 2920 1679 2494 c 0,47,48
 1679 2281 1679 2281 1585 2138 c 1,49,50
 1487 1991 1487 1991 1266 1753 c 0,51,52
 1040 1511 1040 1511 938 1352 c 1,53,54
 807 1159 807 1159 766 1036 c 1,55,56
 721 909 721 909 721 721 c 2,16,-1
EndSplineSet
Validated: 1
EndChar

StartChar: acutecomb
Encoding: 769 769 98
Width: 1073
Flags: W
LayerCount: 2
Fore
SplineSet
698 3281 m 1,0,-1
 956 3064 l 1,1,-1
 202 2728 l 1,2,-1
 128 2810 l 1,3,-1
 698 3281 l 1,0,-1
EndSplineSet
Validated: 1
EndChar

